<svg width="204" height="204" viewBox="0 0 204 204" fill="none" xmlns="http://www.w3.org/2000/svg">
<path fill-rule="evenodd" clip-rule="evenodd" d="M168.236 138.005C167.702 135.056 168.063 132.015 169.273 129.273C170.425 126.584 172.339 124.291 174.778 122.676C177.217 121.06 180.075 120.193 183 120.182H183.818C188.64 120.182 193.265 118.266 196.675 114.856C200.084 111.447 202 106.822 202 102C202 97.1779 200.084 92.5533 196.675 89.1435C193.265 85.7338 188.64 83.8182 183.818 83.8182H182.273C179.347 83.8065 176.489 82.9397 174.05 81.3245C171.611 79.7093 169.698 77.4161 168.545 74.7273V74C167.335 71.258 166.974 68.2164 167.509 65.2674C168.044 62.3183 169.45 59.5971 171.545 57.4545L172.091 56.9091C173.781 55.2205 175.122 53.2152 176.037 51.008C176.952 48.8008 177.423 46.4348 177.423 44.0455C177.423 41.6561 176.952 39.2901 176.037 37.0829C175.122 34.8757 173.781 32.8704 172.091 31.1818C170.402 29.4913 168.397 28.1503 166.19 27.2353C163.983 26.3203 161.617 25.8493 159.227 25.8493C156.838 25.8493 154.472 26.3203 152.265 27.2353C150.057 28.1503 148.052 29.4913 146.364 31.1818L145.818 31.7273C143.676 33.8231 140.954 35.229 138.005 35.7637C135.056 36.2984 132.015 35.9374 129.273 34.7273C126.584 33.5749 124.291 31.6614 122.676 29.2224C121.06 26.7834 120.193 23.9253 120.182 21V20.1818C120.182 15.3597 118.266 10.7351 114.856 7.32533C111.447 3.91558 106.822 2 102 2C97.1779 2 92.5533 3.91558 89.1435 7.32533C85.7338 10.7351 83.8182 15.3597 83.8182 20.1818V21.7273C83.8065 24.6526 82.9397 27.5107 81.3245 29.9497C79.7093 32.3887 77.4161 34.3022 74.7273 35.4545H74C71.258 36.6647 68.2164 37.0257 65.2674 36.491C62.3183 35.9562 59.5971 34.5503 57.4545 32.4545L56.9091 31.9091C55.2205 30.2186 53.2152 28.8775 51.008 27.9626C48.8008 27.0476 46.4348 26.5766 44.0455 26.5766C41.6561 26.5766 39.2901 27.0476 37.0829 27.9626C34.8757 28.8775 32.8704 30.2186 31.1818 31.9091C29.4913 33.5977 28.1503 35.6029 27.2353 37.8102C26.3203 40.0174 25.8493 42.3834 25.8493 44.7727C25.8493 47.1621 26.3203 49.528 27.2353 51.7353C28.1503 53.9425 29.4913 55.9478 31.1818 57.6364L31.7273 58.1818C33.8231 60.3244 35.229 63.0456 35.7637 65.9947C36.2984 68.9437 35.9374 71.9853 34.7273 74.7273C33.6883 77.5521 31.8236 79.9991 29.3754 81.7501C26.9273 83.5011 24.009 84.4751 21 84.5455H20.1818C15.3597 84.5455 10.7351 86.461 7.32533 89.8708C3.91558 93.2805 2 97.9052 2 102.727C2 107.549 3.91558 112.174 7.32533 115.584C10.7351 118.994 15.3597 120.909 20.1818 120.909H21.7273C24.6526 120.921 27.5107 121.788 29.9497 123.403C32.3887 125.018 34.3022 127.311 35.4545 130C36.6647 132.742 37.0257 135.784 36.491 138.733C35.9562 141.682 34.5503 144.403 32.4545 146.545L31.9091 147.091C30.2186 148.78 28.8775 150.785 27.9626 152.992C27.0476 155.199 26.5766 157.565 26.5766 159.955C26.5766 162.344 27.0476 164.71 27.9626 166.917C28.8775 169.124 30.2186 171.13 31.9091 172.818C33.5977 174.509 35.6029 175.85 37.8102 176.765C40.0174 177.68 42.3834 178.151 44.7727 178.151C47.1621 178.151 49.528 177.68 51.7353 176.765C53.9425 175.85 55.9478 174.509 57.6364 172.818L58.1818 172.273C60.3244 170.177 63.0456 168.771 65.9947 168.236C68.9437 167.702 71.9853 168.063 74.7273 169.273C77.5521 170.312 79.9991 172.176 81.7501 174.625C83.5011 177.073 84.4751 179.991 84.5455 183V183.818C84.5455 188.64 86.461 193.265 89.8708 196.675C93.2805 200.084 97.9052 202 102.727 202C107.549 202 112.174 200.084 115.584 196.675C118.994 193.265 120.909 188.64 120.909 183.818V182.273C120.921 179.347 121.788 176.489 123.403 174.05C125.018 171.611 127.311 169.698 130 168.545C132.742 167.335 135.784 166.974 138.733 167.509C141.682 168.044 144.403 169.45 146.545 171.545L147.091 172.091C148.78 173.781 150.785 175.122 152.992 176.037C155.199 176.952 157.565 177.423 159.955 177.423C162.344 177.423 164.71 176.952 166.917 176.037C169.124 175.122 171.13 173.781 172.818 172.091C174.509 170.402 175.85 168.397 176.765 166.19C177.68 163.983 178.151 161.617 178.151 159.227C178.151 156.838 177.68 154.472 176.765 152.265C175.85 150.057 174.509 148.052 172.818 146.364L172.273 145.818C170.177 143.676 168.771 140.954 168.236 138.005ZM75.2973 100.874C75.2973 86.7486 86.7486 75.2973 100.874 75.2973C115 75.2973 126.452 86.7486 126.452 100.874C126.452 115 115 126.452 100.874 126.452C86.7486 126.452 75.2973 115 75.2973 100.874ZM100.874 65.8455C81.5285 65.8455 65.8455 81.5285 65.8455 100.874C65.8455 120.22 81.5285 135.903 100.874 135.903C120.22 135.903 135.903 120.22 135.903 100.874C135.903 81.5285 120.22 65.8455 100.874 65.8455Z" fill="white" stroke="black" stroke-width="3" stroke-linecap="round" stroke-linejoin="round"/>
</svg>
