<svg width="35" height="35" viewBox="0 0 35 35" fill="none" xmlns="http://www.w3.org/2000/svg">
<path d="M3.88889 35C2.85749 35 1.86834 34.5903 1.13903 33.861C0.409721 33.1317 -1.24905e-07 32.1425 -1.69989e-07 31.1111L-1.35991e-06 3.88889C-1.40499e-06 2.85749 0.409719 1.86834 1.13903 1.13903C1.86834 0.409721 2.85749 -1.24905e-07 3.88889 -1.69989e-07L31.1111 -1.35991e-06C32.1425 -1.40499e-06 33.1317 0.40972 33.861 1.13903C34.5903 1.86834 35 2.85749 35 3.88889L35 31.1111C35 32.1425 34.5903 33.1317 33.861 33.861C33.1317 34.5903 32.1425 35 31.1111 35L3.88889 35ZM5.83333 19.4444L22.3611 19.4444L15.5556 26.25L18.3167 29.0111L29.8278 17.5L18.3167 5.98889L15.5556 8.75L22.3611 15.5556L5.83333 15.5556L5.83333 19.4444Z" fill="white"/>
</svg>
