<svg width="450" height="485" viewBox="0 0 450 485" fill="none" xmlns="http://www.w3.org/2000/svg">
<path d="M425.154 270.184C419.632 261.926 411.35 253.669 403.068 248.163C394.786 242.658 386.503 237.153 380.982 234.4C386.503 231.647 392.025 226.142 400.307 220.637C408.589 215.131 414.11 206.873 419.632 198.615C425.153 190.357 430.675 179.347 433.435 171.089C436.197 160.078 438.957 149.067 438.957 135.304C438.957 94.0143 425.153 60.9823 400.307 36.2084C375.461 11.4345 336.811 0.423828 289.878 0.423828H96.6255V195.863H0V281.195H99.3868V484.892H300.92C323.006 484.892 342.331 482.139 361.656 476.634C380.982 471.129 394.785 462.871 408.589 449.107C422.393 438.097 430.675 421.581 438.957 405.065C447.239 388.549 450 369.28 450 344.506C450 327.99 447.24 314.227 444.478 303.216C438.957 289.453 433.436 278.442 425.154 270.184ZM193.251 85.7563H284.356C303.681 85.7563 320.246 91.2616 331.288 102.272C342.331 113.283 347.852 127.046 347.852 143.562C347.852 160.078 342.331 173.841 331.288 184.852C320.246 195.863 306.442 201.368 284.356 201.368H193.251V85.7563ZM339.571 380.291C328.528 391.301 314.724 396.807 292.638 396.807H193.251V278.442H292.638C314.724 278.442 331.288 283.948 339.571 294.958C350.613 305.969 356.135 319.732 356.135 336.248C356.135 352.764 350.613 369.28 339.571 380.291Z" fill="#2F2D3B"/>
</svg>
