<svg width="86" height="78" viewBox="0 0 86 78" fill="none" xmlns="http://www.w3.org/2000/svg">
<g filter="url(#filter0_d_703_1122)">
<path d="M46.5828 23.4527C48.287 23.4527 49.6685 22.0712 49.6685 20.367C49.6685 18.6628 48.287 17.2812 46.5828 17.2812C44.8786 17.2812 43.4971 18.6628 43.4971 20.367C43.4971 22.0712 44.8786 23.4527 46.5828 23.4527Z" fill="#E16162"/>
</g>
<g filter="url(#filter1_d_703_1122)">
<path d="M20.0465 17.2804C23.4549 17.2804 26.2179 14.5174 26.2179 11.109C26.2179 7.70056 23.4549 4.9375 20.0465 4.9375C16.6381 4.9375 13.875 7.70056 13.875 11.109C13.875 14.5174 16.6381 17.2804 20.0465 17.2804Z" fill="#E16162"/>
</g>
<g filter="url(#filter2_d_703_1122)">
<path d="M39.7946 11.1086C42.5213 11.1086 44.7318 8.62187 44.7318 5.55431C44.7318 2.48675 42.5213 0 39.7946 0C37.0679 0 34.8574 2.48675 34.8574 5.55431C34.8574 8.62187 37.0679 11.1086 39.7946 11.1086Z" fill="#E16162"/>
</g>
<g filter="url(#filter3_d_703_1122)">
<path d="M36.091 6.17188L24.9824 8.64046" stroke="#E16162" stroke-width="3" stroke-miterlimit="10"/>
</g>
<g filter="url(#filter4_d_703_1122)">
<path d="M16.3728 12.3438L7.70312 26.192L21.2803 44.4353" stroke="#E16162" stroke-width="3" stroke-miterlimit="10" shape-rendering="crispEdges"/>
</g>
<g filter="url(#filter5_d_703_1122)">
<path d="M62.6286 69.1205C65.0145 69.1205 66.9486 67.1864 66.9486 64.8005C66.9486 62.4146 65.0145 60.4805 62.6286 60.4805C60.2427 60.4805 58.3086 62.4146 58.3086 64.8005C58.3086 67.1864 60.2427 69.1205 62.6286 69.1205Z" fill="#E16162"/>
</g>
<g filter="url(#filter6_d_703_1122)">
<path d="M53.3721 51.8398L63.2464 64.1828" stroke="#E16162" stroke-width="3" stroke-miterlimit="10"/>
</g>
<g filter="url(#filter7_d_703_1122)">
<path d="M57.0742 8.64062L57.916 34.459L70.6514 49.3722" stroke="#E16162" stroke-width="3" stroke-miterlimit="10" shape-rendering="crispEdges"/>
</g>
<g filter="url(#filter8_d_703_1122)">
<path d="M53.3717 56.7768C56.0985 56.7768 58.3089 54.8426 58.3089 52.4567C58.3089 50.0709 56.0985 48.1367 53.3717 48.1367C50.645 48.1367 48.4346 50.0709 48.4346 52.4567C48.4346 54.8426 50.645 56.7768 53.3717 56.7768Z" fill="#E16162"/>
</g>
<g filter="url(#filter9_d_703_1122)">
<path d="M33.623 29.623L44.7317 35.4817L37.5912 48.1374" stroke="#E16162" stroke-width="3" stroke-miterlimit="10" shape-rendering="crispEdges"/>
</g>
<g filter="url(#filter10_d_703_1122)">
<path d="M44.1149 39.4975C46.5008 39.4975 48.435 37.5633 48.435 35.1774C48.435 32.7916 46.5008 30.8574 44.1149 30.8574C41.7291 30.8574 39.7949 32.7916 39.7949 35.1774C39.7949 37.5633 41.7291 39.4975 44.1149 39.4975Z" fill="#E16162"/>
</g>
<g filter="url(#filter11_d_703_1122)">
<path d="M70.6519 56.7764C74.0603 56.7764 76.8234 53.7371 76.8234 49.9878C76.8234 46.2386 74.0603 43.1992 70.6519 43.1992C67.2435 43.1992 64.4805 46.2386 64.4805 49.9878C64.4805 53.7371 67.2435 56.7764 70.6519 56.7764Z" fill="#E16162"/>
</g>
<g filter="url(#filter12_d_703_1122)">
<path d="M71.8857 17.2812L78.0572 30.8585" stroke="#E16162" stroke-width="3" stroke-miterlimit="10"/>
</g>
<g filter="url(#filter13_d_703_1122)">
<path d="M71.8865 20.9819C73.9315 20.9819 75.5893 19.3241 75.5893 17.279C75.5893 15.234 73.9315 13.5762 71.8865 13.5762C69.8414 13.5762 68.1836 15.234 68.1836 17.279C68.1836 19.3241 69.8414 20.9819 71.8865 20.9819Z" fill="#E16162"/>
</g>
<g filter="url(#filter14_d_703_1122)">
<path d="M57.0748 14.8117C60.4832 14.8117 63.2462 12.0486 63.2462 8.64021C63.2462 5.23181 60.4832 2.46875 57.0748 2.46875C53.6664 2.46875 50.9033 5.23181 50.9033 8.64021C50.9033 12.0486 53.6664 14.8117 57.0748 14.8117Z" fill="#E16162"/>
</g>
<g filter="url(#filter15_d_703_1122)">
<path d="M37.943 53.0735C41.0105 53.0735 43.4973 50.5867 43.4973 47.5192C43.4973 44.4516 41.0105 41.9648 37.943 41.9648C34.8754 41.9648 32.3887 44.4516 32.3887 47.5192C32.3887 50.5867 34.8754 53.0735 37.943 53.0735Z" fill="#E16162"/>
</g>
<g filter="url(#filter16_d_703_1122)">
<path d="M31.1539 33.3252C34.5623 33.3252 37.3253 30.2859 37.3253 26.5366C37.3253 22.7874 34.5623 19.748 31.1539 19.748C27.7455 19.748 24.9824 22.7874 24.9824 26.5366C24.9824 30.2859 27.7455 33.3252 31.1539 33.3252Z" fill="#E16162"/>
</g>
<g filter="url(#filter17_d_703_1122)">
<path d="M78.0574 35.7944C80.1024 35.7944 81.7602 34.1366 81.7602 32.0915C81.7602 30.0465 80.1024 28.3887 78.0574 28.3887C76.0123 28.3887 74.3545 30.0465 74.3545 32.0915C74.3545 34.1366 76.0123 35.7944 78.0574 35.7944Z" fill="#E16162"/>
</g>
<g filter="url(#filter18_d_703_1122)">
<path d="M18.5 49.0938C22.6421 49.0938 26 45.9597 26 42.0938C26 38.2278 22.6421 35.0938 18.5 35.0938C14.3579 35.0938 11 38.2278 11 42.0938C11 45.9597 14.3579 49.0938 18.5 49.0938Z" fill="#E16162"/>
</g>
<g filter="url(#filter19_d_703_1122)">
<path d="M8.93716 33.3254C11.6639 33.3254 13.8743 30.8387 13.8743 27.7711C13.8743 24.7035 11.6639 22.2168 8.93716 22.2168C6.21044 22.2168 4 24.7035 4 27.7711C4 30.8387 6.21044 33.3254 8.93716 33.3254Z" fill="#E16162"/>
</g>
<g filter="url(#filter20_d_703_1122)">
<path d="M57.692 39.4974C60.7596 39.4974 63.2463 37.2869 63.2463 34.5602C63.2463 31.8335 60.7596 29.623 57.692 29.623C54.6244 29.623 52.1377 31.8335 52.1377 34.5602C52.1377 37.2869 54.6244 39.4974 57.692 39.4974Z" fill="#E16162"/>
</g>
<defs>
<filter id="filter0_d_703_1122" x="39.4971" y="17.2812" width="14.1719" height="14.1719" filterUnits="userSpaceOnUse" color-interpolation-filters="sRGB">
<feFlood flood-opacity="0" result="BackgroundImageFix"/>
<feColorMatrix in="SourceAlpha" type="matrix" values="0 0 0 0 0 0 0 0 0 0 0 0 0 0 0 0 0 0 127 0" result="hardAlpha"/>
<feOffset dy="4"/>
<feGaussianBlur stdDeviation="2"/>
<feComposite in2="hardAlpha" operator="out"/>
<feColorMatrix type="matrix" values="0 0 0 0 0 0 0 0 0 0 0 0 0 0 0 0 0 0 0.25 0"/>
<feBlend mode="normal" in2="BackgroundImageFix" result="effect1_dropShadow_703_1122"/>
<feBlend mode="normal" in="SourceGraphic" in2="effect1_dropShadow_703_1122" result="shape"/>
</filter>
<filter id="filter1_d_703_1122" x="9.875" y="4.9375" width="20.3428" height="20.3438" filterUnits="userSpaceOnUse" color-interpolation-filters="sRGB">
<feFlood flood-opacity="0" result="BackgroundImageFix"/>
<feColorMatrix in="SourceAlpha" type="matrix" values="0 0 0 0 0 0 0 0 0 0 0 0 0 0 0 0 0 0 127 0" result="hardAlpha"/>
<feOffset dy="4"/>
<feGaussianBlur stdDeviation="2"/>
<feComposite in2="hardAlpha" operator="out"/>
<feColorMatrix type="matrix" values="0 0 0 0 0 0 0 0 0 0 0 0 0 0 0 0 0 0 0.25 0"/>
<feBlend mode="normal" in2="BackgroundImageFix" result="effect1_dropShadow_703_1122"/>
<feBlend mode="normal" in="SourceGraphic" in2="effect1_dropShadow_703_1122" result="shape"/>
</filter>
<filter id="filter2_d_703_1122" x="30.8574" y="0" width="17.874" height="19.1094" filterUnits="userSpaceOnUse" color-interpolation-filters="sRGB">
<feFlood flood-opacity="0" result="BackgroundImageFix"/>
<feColorMatrix in="SourceAlpha" type="matrix" values="0 0 0 0 0 0 0 0 0 0 0 0 0 0 0 0 0 0 127 0" result="hardAlpha"/>
<feOffset dy="4"/>
<feGaussianBlur stdDeviation="2"/>
<feComposite in2="hardAlpha" operator="out"/>
<feColorMatrix type="matrix" values="0 0 0 0 0 0 0 0 0 0 0 0 0 0 0 0 0 0 0.25 0"/>
<feBlend mode="normal" in2="BackgroundImageFix" result="effect1_dropShadow_703_1122"/>
<feBlend mode="normal" in="SourceGraphic" in2="effect1_dropShadow_703_1122" result="shape"/>
</filter>
<filter id="filter3_d_703_1122" x="20.6572" y="4.70703" width="19.7588" height="13.3984" filterUnits="userSpaceOnUse" color-interpolation-filters="sRGB">
<feFlood flood-opacity="0" result="BackgroundImageFix"/>
<feColorMatrix in="SourceAlpha" type="matrix" values="0 0 0 0 0 0 0 0 0 0 0 0 0 0 0 0 0 0 127 0" result="hardAlpha"/>
<feOffset dy="4"/>
<feGaussianBlur stdDeviation="2"/>
<feComposite in2="hardAlpha" operator="out"/>
<feColorMatrix type="matrix" values="0 0 0 0 0 0 0 0 0 0 0 0 0 0 0 0 0 0 0.25 0"/>
<feBlend mode="normal" in2="BackgroundImageFix" result="effect1_dropShadow_703_1122"/>
<feBlend mode="normal" in="SourceGraphic" in2="effect1_dropShadow_703_1122" result="shape"/>
</filter>
<filter id="filter4_d_703_1122" x="1.8877" y="11.5469" width="24.5957" height="41.7832" filterUnits="userSpaceOnUse" color-interpolation-filters="sRGB">
<feFlood flood-opacity="0" result="BackgroundImageFix"/>
<feColorMatrix in="SourceAlpha" type="matrix" values="0 0 0 0 0 0 0 0 0 0 0 0 0 0 0 0 0 0 127 0" result="hardAlpha"/>
<feOffset dy="4"/>
<feGaussianBlur stdDeviation="2"/>
<feComposite in2="hardAlpha" operator="out"/>
<feColorMatrix type="matrix" values="0 0 0 0 0 0 0 0 0 0 0 0 0 0 0 0 0 0 0.25 0"/>
<feBlend mode="normal" in2="BackgroundImageFix" result="effect1_dropShadow_703_1122"/>
<feBlend mode="normal" in="SourceGraphic" in2="effect1_dropShadow_703_1122" result="shape"/>
</filter>
<filter id="filter5_d_703_1122" x="54.3086" y="60.4805" width="16.6396" height="16.6406" filterUnits="userSpaceOnUse" color-interpolation-filters="sRGB">
<feFlood flood-opacity="0" result="BackgroundImageFix"/>
<feColorMatrix in="SourceAlpha" type="matrix" values="0 0 0 0 0 0 0 0 0 0 0 0 0 0 0 0 0 0 127 0" result="hardAlpha"/>
<feOffset dy="4"/>
<feGaussianBlur stdDeviation="2"/>
<feComposite in2="hardAlpha" operator="out"/>
<feColorMatrix type="matrix" values="0 0 0 0 0 0 0 0 0 0 0 0 0 0 0 0 0 0 0.25 0"/>
<feBlend mode="normal" in2="BackgroundImageFix" result="effect1_dropShadow_703_1122"/>
<feBlend mode="normal" in="SourceGraphic" in2="effect1_dropShadow_703_1122" result="shape"/>
</filter>
<filter id="filter6_d_703_1122" x="48.2012" y="50.9023" width="20.2168" height="22.2168" filterUnits="userSpaceOnUse" color-interpolation-filters="sRGB">
<feFlood flood-opacity="0" result="BackgroundImageFix"/>
<feColorMatrix in="SourceAlpha" type="matrix" values="0 0 0 0 0 0 0 0 0 0 0 0 0 0 0 0 0 0 127 0" result="hardAlpha"/>
<feOffset dy="4"/>
<feGaussianBlur stdDeviation="2"/>
<feComposite in2="hardAlpha" operator="out"/>
<feColorMatrix type="matrix" values="0 0 0 0 0 0 0 0 0 0 0 0 0 0 0 0 0 0 0.25 0"/>
<feBlend mode="normal" in2="BackgroundImageFix" result="effect1_dropShadow_703_1122"/>
<feBlend mode="normal" in="SourceGraphic" in2="effect1_dropShadow_703_1122" result="shape"/>
</filter>
<filter id="filter7_d_703_1122" x="51.5752" y="8.5918" width="24.2168" height="49.7539" filterUnits="userSpaceOnUse" color-interpolation-filters="sRGB">
<feFlood flood-opacity="0" result="BackgroundImageFix"/>
<feColorMatrix in="SourceAlpha" type="matrix" values="0 0 0 0 0 0 0 0 0 0 0 0 0 0 0 0 0 0 127 0" result="hardAlpha"/>
<feOffset dy="4"/>
<feGaussianBlur stdDeviation="2"/>
<feComposite in2="hardAlpha" operator="out"/>
<feColorMatrix type="matrix" values="0 0 0 0 0 0 0 0 0 0 0 0 0 0 0 0 0 0 0.25 0"/>
<feBlend mode="normal" in2="BackgroundImageFix" result="effect1_dropShadow_703_1122"/>
<feBlend mode="normal" in="SourceGraphic" in2="effect1_dropShadow_703_1122" result="shape"/>
</filter>
<filter id="filter8_d_703_1122" x="44.4346" y="48.1367" width="17.874" height="16.6406" filterUnits="userSpaceOnUse" color-interpolation-filters="sRGB">
<feFlood flood-opacity="0" result="BackgroundImageFix"/>
<feColorMatrix in="SourceAlpha" type="matrix" values="0 0 0 0 0 0 0 0 0 0 0 0 0 0 0 0 0 0 127 0" result="hardAlpha"/>
<feOffset dy="4"/>
<feGaussianBlur stdDeviation="2"/>
<feComposite in2="hardAlpha" operator="out"/>
<feColorMatrix type="matrix" values="0 0 0 0 0 0 0 0 0 0 0 0 0 0 0 0 0 0 0.25 0"/>
<feBlend mode="normal" in2="BackgroundImageFix" result="effect1_dropShadow_703_1122"/>
<feBlend mode="normal" in="SourceGraphic" in2="effect1_dropShadow_703_1122" result="shape"/>
</filter>
<filter id="filter9_d_703_1122" x="28.9229" y="28.2969" width="21.873" height="28.5781" filterUnits="userSpaceOnUse" color-interpolation-filters="sRGB">
<feFlood flood-opacity="0" result="BackgroundImageFix"/>
<feColorMatrix in="SourceAlpha" type="matrix" values="0 0 0 0 0 0 0 0 0 0 0 0 0 0 0 0 0 0 127 0" result="hardAlpha"/>
<feOffset dy="4"/>
<feGaussianBlur stdDeviation="2"/>
<feComposite in2="hardAlpha" operator="out"/>
<feColorMatrix type="matrix" values="0 0 0 0 0 0 0 0 0 0 0 0 0 0 0 0 0 0 0.25 0"/>
<feBlend mode="normal" in2="BackgroundImageFix" result="effect1_dropShadow_703_1122"/>
<feBlend mode="normal" in="SourceGraphic" in2="effect1_dropShadow_703_1122" result="shape"/>
</filter>
<filter id="filter10_d_703_1122" x="35.7949" y="30.8574" width="16.6396" height="16.6406" filterUnits="userSpaceOnUse" color-interpolation-filters="sRGB">
<feFlood flood-opacity="0" result="BackgroundImageFix"/>
<feColorMatrix in="SourceAlpha" type="matrix" values="0 0 0 0 0 0 0 0 0 0 0 0 0 0 0 0 0 0 127 0" result="hardAlpha"/>
<feOffset dy="4"/>
<feGaussianBlur stdDeviation="2"/>
<feComposite in2="hardAlpha" operator="out"/>
<feColorMatrix type="matrix" values="0 0 0 0 0 0 0 0 0 0 0 0 0 0 0 0 0 0 0.25 0"/>
<feBlend mode="normal" in2="BackgroundImageFix" result="effect1_dropShadow_703_1122"/>
<feBlend mode="normal" in="SourceGraphic" in2="effect1_dropShadow_703_1122" result="shape"/>
</filter>
<filter id="filter11_d_703_1122" x="60.4805" y="43.1992" width="20.3428" height="21.5781" filterUnits="userSpaceOnUse" color-interpolation-filters="sRGB">
<feFlood flood-opacity="0" result="BackgroundImageFix"/>
<feColorMatrix in="SourceAlpha" type="matrix" values="0 0 0 0 0 0 0 0 0 0 0 0 0 0 0 0 0 0 127 0" result="hardAlpha"/>
<feOffset dy="4"/>
<feGaussianBlur stdDeviation="2"/>
<feComposite in2="hardAlpha" operator="out"/>
<feColorMatrix type="matrix" values="0 0 0 0 0 0 0 0 0 0 0 0 0 0 0 0 0 0 0.25 0"/>
<feBlend mode="normal" in2="BackgroundImageFix" result="effect1_dropShadow_703_1122"/>
<feBlend mode="normal" in="SourceGraphic" in2="effect1_dropShadow_703_1122" result="shape"/>
</filter>
<filter id="filter12_d_703_1122" x="66.5205" y="16.6602" width="16.9023" height="22.8184" filterUnits="userSpaceOnUse" color-interpolation-filters="sRGB">
<feFlood flood-opacity="0" result="BackgroundImageFix"/>
<feColorMatrix in="SourceAlpha" type="matrix" values="0 0 0 0 0 0 0 0 0 0 0 0 0 0 0 0 0 0 127 0" result="hardAlpha"/>
<feOffset dy="4"/>
<feGaussianBlur stdDeviation="2"/>
<feComposite in2="hardAlpha" operator="out"/>
<feColorMatrix type="matrix" values="0 0 0 0 0 0 0 0 0 0 0 0 0 0 0 0 0 0 0.25 0"/>
<feBlend mode="normal" in2="BackgroundImageFix" result="effect1_dropShadow_703_1122"/>
<feBlend mode="normal" in="SourceGraphic" in2="effect1_dropShadow_703_1122" result="shape"/>
</filter>
<filter id="filter13_d_703_1122" x="64.1836" y="13.5762" width="15.4053" height="15.4062" filterUnits="userSpaceOnUse" color-interpolation-filters="sRGB">
<feFlood flood-opacity="0" result="BackgroundImageFix"/>
<feColorMatrix in="SourceAlpha" type="matrix" values="0 0 0 0 0 0 0 0 0 0 0 0 0 0 0 0 0 0 127 0" result="hardAlpha"/>
<feOffset dy="4"/>
<feGaussianBlur stdDeviation="2"/>
<feComposite in2="hardAlpha" operator="out"/>
<feColorMatrix type="matrix" values="0 0 0 0 0 0 0 0 0 0 0 0 0 0 0 0 0 0 0.25 0"/>
<feBlend mode="normal" in2="BackgroundImageFix" result="effect1_dropShadow_703_1122"/>
<feBlend mode="normal" in="SourceGraphic" in2="effect1_dropShadow_703_1122" result="shape"/>
</filter>
<filter id="filter14_d_703_1122" x="46.9033" y="2.46875" width="20.3428" height="20.3438" filterUnits="userSpaceOnUse" color-interpolation-filters="sRGB">
<feFlood flood-opacity="0" result="BackgroundImageFix"/>
<feColorMatrix in="SourceAlpha" type="matrix" values="0 0 0 0 0 0 0 0 0 0 0 0 0 0 0 0 0 0 127 0" result="hardAlpha"/>
<feOffset dy="4"/>
<feGaussianBlur stdDeviation="2"/>
<feComposite in2="hardAlpha" operator="out"/>
<feColorMatrix type="matrix" values="0 0 0 0 0 0 0 0 0 0 0 0 0 0 0 0 0 0 0.25 0"/>
<feBlend mode="normal" in2="BackgroundImageFix" result="effect1_dropShadow_703_1122"/>
<feBlend mode="normal" in="SourceGraphic" in2="effect1_dropShadow_703_1122" result="shape"/>
</filter>
<filter id="filter15_d_703_1122" x="28.3887" y="41.9648" width="19.1084" height="19.1094" filterUnits="userSpaceOnUse" color-interpolation-filters="sRGB">
<feFlood flood-opacity="0" result="BackgroundImageFix"/>
<feColorMatrix in="SourceAlpha" type="matrix" values="0 0 0 0 0 0 0 0 0 0 0 0 0 0 0 0 0 0 127 0" result="hardAlpha"/>
<feOffset dy="4"/>
<feGaussianBlur stdDeviation="2"/>
<feComposite in2="hardAlpha" operator="out"/>
<feColorMatrix type="matrix" values="0 0 0 0 0 0 0 0 0 0 0 0 0 0 0 0 0 0 0.25 0"/>
<feBlend mode="normal" in2="BackgroundImageFix" result="effect1_dropShadow_703_1122"/>
<feBlend mode="normal" in="SourceGraphic" in2="effect1_dropShadow_703_1122" result="shape"/>
</filter>
<filter id="filter16_d_703_1122" x="20.9824" y="19.748" width="20.3428" height="21.5781" filterUnits="userSpaceOnUse" color-interpolation-filters="sRGB">
<feFlood flood-opacity="0" result="BackgroundImageFix"/>
<feColorMatrix in="SourceAlpha" type="matrix" values="0 0 0 0 0 0 0 0 0 0 0 0 0 0 0 0 0 0 127 0" result="hardAlpha"/>
<feOffset dy="4"/>
<feGaussianBlur stdDeviation="2"/>
<feComposite in2="hardAlpha" operator="out"/>
<feColorMatrix type="matrix" values="0 0 0 0 0 0 0 0 0 0 0 0 0 0 0 0 0 0 0.25 0"/>
<feBlend mode="normal" in2="BackgroundImageFix" result="effect1_dropShadow_703_1122"/>
<feBlend mode="normal" in="SourceGraphic" in2="effect1_dropShadow_703_1122" result="shape"/>
</filter>
<filter id="filter17_d_703_1122" x="70.3545" y="28.3887" width="15.4053" height="15.4062" filterUnits="userSpaceOnUse" color-interpolation-filters="sRGB">
<feFlood flood-opacity="0" result="BackgroundImageFix"/>
<feColorMatrix in="SourceAlpha" type="matrix" values="0 0 0 0 0 0 0 0 0 0 0 0 0 0 0 0 0 0 127 0" result="hardAlpha"/>
<feOffset dy="4"/>
<feGaussianBlur stdDeviation="2"/>
<feComposite in2="hardAlpha" operator="out"/>
<feColorMatrix type="matrix" values="0 0 0 0 0 0 0 0 0 0 0 0 0 0 0 0 0 0 0.25 0"/>
<feBlend mode="normal" in2="BackgroundImageFix" result="effect1_dropShadow_703_1122"/>
<feBlend mode="normal" in="SourceGraphic" in2="effect1_dropShadow_703_1122" result="shape"/>
</filter>
<filter id="filter18_d_703_1122" x="7" y="35.0938" width="23" height="22" filterUnits="userSpaceOnUse" color-interpolation-filters="sRGB">
<feFlood flood-opacity="0" result="BackgroundImageFix"/>
<feColorMatrix in="SourceAlpha" type="matrix" values="0 0 0 0 0 0 0 0 0 0 0 0 0 0 0 0 0 0 127 0" result="hardAlpha"/>
<feOffset dy="4"/>
<feGaussianBlur stdDeviation="2"/>
<feComposite in2="hardAlpha" operator="out"/>
<feColorMatrix type="matrix" values="0 0 0 0 0 0 0 0 0 0 0 0 0 0 0 0 0 0 0.25 0"/>
<feBlend mode="normal" in2="BackgroundImageFix" result="effect1_dropShadow_703_1122"/>
<feBlend mode="normal" in="SourceGraphic" in2="effect1_dropShadow_703_1122" result="shape"/>
</filter>
<filter id="filter19_d_703_1122" x="0" y="22.2168" width="17.874" height="19.1094" filterUnits="userSpaceOnUse" color-interpolation-filters="sRGB">
<feFlood flood-opacity="0" result="BackgroundImageFix"/>
<feColorMatrix in="SourceAlpha" type="matrix" values="0 0 0 0 0 0 0 0 0 0 0 0 0 0 0 0 0 0 127 0" result="hardAlpha"/>
<feOffset dy="4"/>
<feGaussianBlur stdDeviation="2"/>
<feComposite in2="hardAlpha" operator="out"/>
<feColorMatrix type="matrix" values="0 0 0 0 0 0 0 0 0 0 0 0 0 0 0 0 0 0 0.25 0"/>
<feBlend mode="normal" in2="BackgroundImageFix" result="effect1_dropShadow_703_1122"/>
<feBlend mode="normal" in="SourceGraphic" in2="effect1_dropShadow_703_1122" result="shape"/>
</filter>
<filter id="filter20_d_703_1122" x="48.1377" y="29.623" width="19.1084" height="17.875" filterUnits="userSpaceOnUse" color-interpolation-filters="sRGB">
<feFlood flood-opacity="0" result="BackgroundImageFix"/>
<feColorMatrix in="SourceAlpha" type="matrix" values="0 0 0 0 0 0 0 0 0 0 0 0 0 0 0 0 0 0 127 0" result="hardAlpha"/>
<feOffset dy="4"/>
<feGaussianBlur stdDeviation="2"/>
<feComposite in2="hardAlpha" operator="out"/>
<feColorMatrix type="matrix" values="0 0 0 0 0 0 0 0 0 0 0 0 0 0 0 0 0 0 0.25 0"/>
<feBlend mode="normal" in2="BackgroundImageFix" result="effect1_dropShadow_703_1122"/>
<feBlend mode="normal" in="SourceGraphic" in2="effect1_dropShadow_703_1122" result="shape"/>
</filter>
</defs>
</svg>
