<svg width="371" height="427" viewBox="0 0 371 427" fill="none" xmlns="http://www.w3.org/2000/svg">
<g opacity="0.2">
<ellipse opacity="0.4" cx="115.688" cy="3.99065" rx="3.98925" ry="3.99065" fill="#D9D9D9"/>
<ellipse opacity="0.4" cx="115.688" cy="143.664" rx="3.98925" ry="3.99065" fill="#D9D9D9"/>
<ellipse opacity="0.4" cx="115.688" cy="283.336" rx="3.98925" ry="3.99066" fill="#D9D9D9"/>
<ellipse opacity="0.4" cx="115.688" cy="31.9262" rx="3.98925" ry="3.99065" fill="#D9D9D9"/>
<ellipse opacity="0.4" cx="115.688" cy="171.598" rx="3.98925" ry="3.99065" fill="#D9D9D9"/>
<ellipse opacity="0.4" cx="115.688" cy="311.272" rx="3.98925" ry="3.99066" fill="#D9D9D9"/>
<ellipse opacity="0.4" cx="115.688" cy="59.8598" rx="3.98925" ry="3.99065" fill="#D9D9D9"/>
<ellipse opacity="0.4" cx="115.688" cy="199.534" rx="3.98925" ry="3.99065" fill="#D9D9D9"/>
<ellipse opacity="0.4" cx="115.688" cy="339.206" rx="3.98925" ry="3.99065" fill="#D9D9D9"/>
<ellipse opacity="0.4" cx="115.688" cy="87.7953" rx="3.98925" ry="3.99065" fill="#D9D9D9"/>
<ellipse opacity="0.4" cx="115.688" cy="227.467" rx="3.98925" ry="3.99065" fill="#D9D9D9"/>
<ellipse opacity="0.4" cx="115.688" cy="367.141" rx="3.98925" ry="3.99065" fill="#D9D9D9"/>
<ellipse opacity="0.4" cx="115.688" cy="115.729" rx="3.98925" ry="3.99065" fill="#D9D9D9"/>
<ellipse opacity="0.4" cx="115.688" cy="255.403" rx="3.98925" ry="3.99065" fill="#D9D9D9"/>
<ellipse opacity="0.4" cx="115.688" cy="395.075" rx="3.98925" ry="3.99066" fill="#D9D9D9"/>
<ellipse opacity="0.4" cx="115.688" cy="423.01" rx="3.98925" ry="3.99066" fill="#D9D9D9"/>
<ellipse opacity="0.4" cx="3.98925" cy="3.99065" rx="3.98925" ry="3.99065" fill="#D9D9D9"/>
<ellipse opacity="0.4" cx="3.98925" cy="143.664" rx="3.98925" ry="3.99065" fill="#D9D9D9"/>
<ellipse opacity="0.4" cx="3.98925" cy="283.336" rx="3.98925" ry="3.99066" fill="#D9D9D9"/>
<ellipse opacity="0.4" cx="3.98925" cy="31.9262" rx="3.98925" ry="3.99065" fill="#D9D9D9"/>
<ellipse opacity="0.4" cx="3.98925" cy="171.598" rx="3.98925" ry="3.99065" fill="#D9D9D9"/>
<ellipse opacity="0.4" cx="3.98925" cy="311.272" rx="3.98925" ry="3.99066" fill="#D9D9D9"/>
<ellipse opacity="0.4" cx="3.98925" cy="59.8598" rx="3.98925" ry="3.99065" fill="#D9D9D9"/>
<ellipse opacity="0.4" cx="3.98925" cy="199.534" rx="3.98925" ry="3.99065" fill="#D9D9D9"/>
<ellipse opacity="0.4" cx="3.98925" cy="339.206" rx="3.98925" ry="3.99065" fill="#D9D9D9"/>
<ellipse opacity="0.4" cx="3.98925" cy="87.7953" rx="3.98925" ry="3.99065" fill="#D9D9D9"/>
<ellipse opacity="0.4" cx="3.98925" cy="227.467" rx="3.98925" ry="3.99065" fill="#D9D9D9"/>
<ellipse opacity="0.4" cx="3.98925" cy="367.141" rx="3.98925" ry="3.99065" fill="#D9D9D9"/>
<ellipse opacity="0.4" cx="3.98925" cy="115.729" rx="3.98925" ry="3.99065" fill="#D9D9D9"/>
<ellipse opacity="0.4" cx="3.98925" cy="255.403" rx="3.98925" ry="3.99065" fill="#D9D9D9"/>
<ellipse opacity="0.4" cx="3.98925" cy="395.075" rx="3.98925" ry="3.99066" fill="#D9D9D9"/>
<ellipse opacity="0.4" cx="3.98925" cy="423.01" rx="3.98925" ry="3.99066" fill="#D9D9D9"/>
<ellipse opacity="0.4" cx="143.613" cy="3.99065" rx="3.98925" ry="3.99065" fill="#D9D9D9"/>
<ellipse opacity="0.4" cx="143.613" cy="143.664" rx="3.98925" ry="3.99065" fill="#D9D9D9"/>
<ellipse opacity="0.4" cx="143.613" cy="283.336" rx="3.98925" ry="3.99066" fill="#D9D9D9"/>
<ellipse opacity="0.4" cx="143.613" cy="31.9262" rx="3.98925" ry="3.99065" fill="#D9D9D9"/>
<ellipse opacity="0.4" cx="143.613" cy="171.598" rx="3.98925" ry="3.99065" fill="#D9D9D9"/>
<ellipse opacity="0.4" cx="143.613" cy="311.272" rx="3.98925" ry="3.99066" fill="#D9D9D9"/>
<ellipse opacity="0.4" cx="143.613" cy="59.8598" rx="3.98925" ry="3.99065" fill="#D9D9D9"/>
<ellipse opacity="0.4" cx="143.613" cy="199.534" rx="3.98925" ry="3.99065" fill="#D9D9D9"/>
<ellipse opacity="0.4" cx="143.613" cy="339.206" rx="3.98925" ry="3.99065" fill="#D9D9D9"/>
<ellipse opacity="0.4" cx="143.613" cy="87.7953" rx="3.98925" ry="3.99065" fill="#D9D9D9"/>
<ellipse opacity="0.4" cx="143.613" cy="227.467" rx="3.98925" ry="3.99065" fill="#D9D9D9"/>
<ellipse opacity="0.4" cx="143.613" cy="367.141" rx="3.98925" ry="3.99065" fill="#D9D9D9"/>
<ellipse opacity="0.4" cx="143.613" cy="115.729" rx="3.98925" ry="3.99065" fill="#D9D9D9"/>
<ellipse opacity="0.4" cx="143.613" cy="255.403" rx="3.98925" ry="3.99065" fill="#D9D9D9"/>
<ellipse opacity="0.4" cx="143.613" cy="395.075" rx="3.98925" ry="3.99066" fill="#D9D9D9"/>
<ellipse opacity="0.4" cx="143.613" cy="423.01" rx="3.98925" ry="3.99066" fill="#D9D9D9"/>
<ellipse opacity="0.4" cx="31.9141" cy="3.99065" rx="3.98925" ry="3.99065" fill="#D9D9D9"/>
<ellipse opacity="0.4" cx="31.9141" cy="143.664" rx="3.98925" ry="3.99065" fill="#D9D9D9"/>
<ellipse opacity="0.4" cx="31.9141" cy="283.336" rx="3.98925" ry="3.99066" fill="#D9D9D9"/>
<ellipse opacity="0.4" cx="31.9141" cy="31.9262" rx="3.98925" ry="3.99065" fill="#D9D9D9"/>
<ellipse opacity="0.4" cx="31.9141" cy="171.598" rx="3.98925" ry="3.99065" fill="#D9D9D9"/>
<ellipse opacity="0.4" cx="31.9141" cy="311.272" rx="3.98925" ry="3.99066" fill="#D9D9D9"/>
<ellipse opacity="0.4" cx="31.9141" cy="59.8598" rx="3.98925" ry="3.99065" fill="#D9D9D9"/>
<ellipse opacity="0.4" cx="31.9141" cy="199.534" rx="3.98925" ry="3.99065" fill="#D9D9D9"/>
<ellipse opacity="0.4" cx="31.9141" cy="339.206" rx="3.98925" ry="3.99065" fill="#D9D9D9"/>
<ellipse opacity="0.4" cx="31.9141" cy="87.7953" rx="3.98925" ry="3.99065" fill="#D9D9D9"/>
<ellipse opacity="0.4" cx="31.9141" cy="227.467" rx="3.98925" ry="3.99065" fill="#D9D9D9"/>
<ellipse opacity="0.4" cx="31.9141" cy="367.141" rx="3.98925" ry="3.99065" fill="#D9D9D9"/>
<ellipse opacity="0.4" cx="31.9141" cy="115.729" rx="3.98925" ry="3.99065" fill="#D9D9D9"/>
<ellipse opacity="0.4" cx="31.9141" cy="255.403" rx="3.98925" ry="3.99065" fill="#D9D9D9"/>
<ellipse opacity="0.4" cx="31.9141" cy="395.075" rx="3.98925" ry="3.99066" fill="#D9D9D9"/>
<ellipse opacity="0.4" cx="31.9141" cy="423.01" rx="3.98925" ry="3.99066" fill="#D9D9D9"/>
<ellipse opacity="0.4" cx="171.538" cy="3.99065" rx="3.98925" ry="3.99065" fill="#D9D9D9"/>
<ellipse opacity="0.4" cx="171.538" cy="143.664" rx="3.98925" ry="3.99065" fill="#D9D9D9"/>
<ellipse opacity="0.4" cx="171.538" cy="283.336" rx="3.98925" ry="3.99066" fill="#D9D9D9"/>
<ellipse opacity="0.4" cx="171.538" cy="31.9262" rx="3.98925" ry="3.99065" fill="#D9D9D9"/>
<ellipse opacity="0.4" cx="171.538" cy="171.598" rx="3.98925" ry="3.99065" fill="#D9D9D9"/>
<ellipse opacity="0.4" cx="171.538" cy="311.272" rx="3.98925" ry="3.99066" fill="#D9D9D9"/>
<ellipse opacity="0.4" cx="171.538" cy="59.8598" rx="3.98925" ry="3.99065" fill="#D9D9D9"/>
<ellipse opacity="0.4" cx="171.538" cy="199.534" rx="3.98925" ry="3.99065" fill="#D9D9D9"/>
<ellipse opacity="0.4" cx="171.538" cy="339.206" rx="3.98925" ry="3.99065" fill="#D9D9D9"/>
<ellipse opacity="0.4" cx="171.538" cy="87.7953" rx="3.98925" ry="3.99065" fill="#D9D9D9"/>
<ellipse opacity="0.4" cx="171.538" cy="227.467" rx="3.98925" ry="3.99065" fill="#D9D9D9"/>
<ellipse opacity="0.4" cx="171.538" cy="367.141" rx="3.98925" ry="3.99065" fill="#D9D9D9"/>
<ellipse opacity="0.4" cx="171.538" cy="115.729" rx="3.98925" ry="3.99065" fill="#D9D9D9"/>
<ellipse opacity="0.4" cx="171.538" cy="255.403" rx="3.98925" ry="3.99065" fill="#D9D9D9"/>
<ellipse opacity="0.4" cx="171.538" cy="395.075" rx="3.98925" ry="3.99066" fill="#D9D9D9"/>
<ellipse opacity="0.4" cx="171.538" cy="423.01" rx="3.98925" ry="3.99066" fill="#D9D9D9"/>
<ellipse opacity="0.4" cx="59.8386" cy="3.99065" rx="3.98925" ry="3.99065" fill="#D9D9D9"/>
<ellipse opacity="0.4" cx="59.8386" cy="143.664" rx="3.98925" ry="3.99065" fill="#D9D9D9"/>
<ellipse opacity="0.4" cx="59.8386" cy="283.336" rx="3.98925" ry="3.99066" fill="#D9D9D9"/>
<ellipse opacity="0.4" cx="59.8386" cy="31.9262" rx="3.98925" ry="3.99065" fill="#D9D9D9"/>
<ellipse opacity="0.4" cx="59.8386" cy="171.598" rx="3.98925" ry="3.99065" fill="#D9D9D9"/>
<ellipse opacity="0.4" cx="59.8386" cy="311.272" rx="3.98925" ry="3.99066" fill="#D9D9D9"/>
<ellipse opacity="0.4" cx="59.8386" cy="59.8598" rx="3.98925" ry="3.99065" fill="#D9D9D9"/>
<ellipse opacity="0.4" cx="59.8386" cy="199.534" rx="3.98925" ry="3.99065" fill="#D9D9D9"/>
<ellipse opacity="0.4" cx="59.8386" cy="339.206" rx="3.98925" ry="3.99065" fill="#D9D9D9"/>
<ellipse opacity="0.4" cx="59.8386" cy="87.7953" rx="3.98925" ry="3.99065" fill="#D9D9D9"/>
<ellipse opacity="0.4" cx="59.8386" cy="227.467" rx="3.98925" ry="3.99065" fill="#D9D9D9"/>
<ellipse opacity="0.4" cx="59.8386" cy="367.141" rx="3.98925" ry="3.99065" fill="#D9D9D9"/>
<ellipse opacity="0.4" cx="59.8386" cy="115.729" rx="3.98925" ry="3.99065" fill="#D9D9D9"/>
<ellipse opacity="0.4" cx="59.8386" cy="255.403" rx="3.98925" ry="3.99065" fill="#D9D9D9"/>
<ellipse opacity="0.4" cx="59.8386" cy="395.075" rx="3.98925" ry="3.99066" fill="#D9D9D9"/>
<ellipse opacity="0.4" cx="59.8386" cy="423.01" rx="3.98925" ry="3.99066" fill="#D9D9D9"/>
<ellipse opacity="0.4" cx="199.462" cy="3.99065" rx="3.98925" ry="3.99065" fill="#D9D9D9"/>
<ellipse opacity="0.4" cx="199.462" cy="143.664" rx="3.98925" ry="3.99065" fill="#D9D9D9"/>
<ellipse opacity="0.4" cx="199.462" cy="283.336" rx="3.98925" ry="3.99066" fill="#D9D9D9"/>
<ellipse opacity="0.4" cx="199.462" cy="31.9262" rx="3.98925" ry="3.99065" fill="#D9D9D9"/>
<ellipse opacity="0.4" cx="199.462" cy="171.598" rx="3.98925" ry="3.99065" fill="#D9D9D9"/>
<ellipse opacity="0.4" cx="199.462" cy="311.272" rx="3.98925" ry="3.99066" fill="#D9D9D9"/>
<ellipse opacity="0.4" cx="199.462" cy="59.8598" rx="3.98925" ry="3.99065" fill="#D9D9D9"/>
<ellipse opacity="0.4" cx="199.462" cy="199.534" rx="3.98925" ry="3.99065" fill="#D9D9D9"/>
<ellipse opacity="0.4" cx="199.462" cy="339.206" rx="3.98925" ry="3.99065" fill="#D9D9D9"/>
<ellipse opacity="0.4" cx="199.462" cy="87.7953" rx="3.98925" ry="3.99065" fill="#D9D9D9"/>
<ellipse opacity="0.4" cx="199.462" cy="227.467" rx="3.98925" ry="3.99065" fill="#D9D9D9"/>
<ellipse opacity="0.4" cx="199.462" cy="367.141" rx="3.98925" ry="3.99065" fill="#D9D9D9"/>
<ellipse opacity="0.4" cx="199.462" cy="115.729" rx="3.98925" ry="3.99065" fill="#D9D9D9"/>
<ellipse opacity="0.4" cx="199.462" cy="255.403" rx="3.98925" ry="3.99065" fill="#D9D9D9"/>
<ellipse opacity="0.4" cx="199.462" cy="395.075" rx="3.98925" ry="3.99066" fill="#D9D9D9"/>
<ellipse opacity="0.4" cx="199.462" cy="423.01" rx="3.98925" ry="3.99066" fill="#D9D9D9"/>
<ellipse opacity="0.4" cx="87.7634" cy="3.99065" rx="3.98925" ry="3.99065" fill="#D9D9D9"/>
<ellipse opacity="0.4" cx="87.7634" cy="143.664" rx="3.98925" ry="3.99065" fill="#D9D9D9"/>
<ellipse opacity="0.4" cx="87.7634" cy="283.336" rx="3.98925" ry="3.99066" fill="#D9D9D9"/>
<ellipse opacity="0.4" cx="87.7634" cy="31.9262" rx="3.98925" ry="3.99065" fill="#D9D9D9"/>
<ellipse opacity="0.4" cx="87.7634" cy="171.598" rx="3.98925" ry="3.99065" fill="#D9D9D9"/>
<ellipse opacity="0.4" cx="87.7634" cy="311.272" rx="3.98925" ry="3.99066" fill="#D9D9D9"/>
<ellipse opacity="0.4" cx="87.7634" cy="59.8598" rx="3.98925" ry="3.99065" fill="#D9D9D9"/>
<ellipse opacity="0.4" cx="87.7634" cy="199.534" rx="3.98925" ry="3.99065" fill="#D9D9D9"/>
<ellipse opacity="0.4" cx="87.7634" cy="339.206" rx="3.98925" ry="3.99065" fill="#D9D9D9"/>
<ellipse opacity="0.4" cx="87.7634" cy="87.7953" rx="3.98925" ry="3.99065" fill="#D9D9D9"/>
<ellipse opacity="0.4" cx="87.7634" cy="227.467" rx="3.98925" ry="3.99065" fill="#D9D9D9"/>
<ellipse opacity="0.4" cx="87.7634" cy="367.141" rx="3.98925" ry="3.99065" fill="#D9D9D9"/>
<ellipse opacity="0.4" cx="87.7634" cy="115.729" rx="3.98925" ry="3.99065" fill="#D9D9D9"/>
<ellipse opacity="0.4" cx="87.7634" cy="255.403" rx="3.98925" ry="3.99065" fill="#D9D9D9"/>
<ellipse opacity="0.4" cx="87.7634" cy="395.075" rx="3.98925" ry="3.99066" fill="#D9D9D9"/>
<ellipse opacity="0.4" cx="87.7634" cy="423.01" rx="3.98925" ry="3.99066" fill="#D9D9D9"/>
<ellipse opacity="0.4" cx="227.387" cy="3.99065" rx="3.98925" ry="3.99065" fill="#D9D9D9"/>
<ellipse opacity="0.4" cx="227.387" cy="143.664" rx="3.98925" ry="3.99065" fill="#D9D9D9"/>
<ellipse opacity="0.4" cx="227.387" cy="283.336" rx="3.98925" ry="3.99066" fill="#D9D9D9"/>
<ellipse opacity="0.4" cx="227.387" cy="31.9262" rx="3.98925" ry="3.99065" fill="#D9D9D9"/>
<ellipse opacity="0.4" cx="227.387" cy="171.598" rx="3.98925" ry="3.99065" fill="#D9D9D9"/>
<ellipse opacity="0.4" cx="227.387" cy="311.272" rx="3.98925" ry="3.99066" fill="#D9D9D9"/>
<ellipse opacity="0.4" cx="227.387" cy="59.8598" rx="3.98925" ry="3.99065" fill="#D9D9D9"/>
<ellipse opacity="0.4" cx="227.387" cy="199.534" rx="3.98925" ry="3.99065" fill="#D9D9D9"/>
<ellipse opacity="0.4" cx="227.387" cy="339.206" rx="3.98925" ry="3.99065" fill="#D9D9D9"/>
<ellipse opacity="0.4" cx="227.387" cy="87.7953" rx="3.98925" ry="3.99065" fill="#D9D9D9"/>
<ellipse opacity="0.4" cx="227.387" cy="227.467" rx="3.98925" ry="3.99065" fill="#D9D9D9"/>
<ellipse opacity="0.4" cx="227.387" cy="367.141" rx="3.98925" ry="3.99065" fill="#D9D9D9"/>
<ellipse opacity="0.4" cx="227.387" cy="115.729" rx="3.98925" ry="3.99065" fill="#D9D9D9"/>
<ellipse opacity="0.4" cx="227.387" cy="255.403" rx="3.98925" ry="3.99065" fill="#D9D9D9"/>
<ellipse opacity="0.4" cx="227.387" cy="395.075" rx="3.98925" ry="3.99066" fill="#D9D9D9"/>
<ellipse opacity="0.4" cx="227.387" cy="423.01" rx="3.98925" ry="3.99066" fill="#D9D9D9"/>
<ellipse opacity="0.4" cx="255.312" cy="3.99065" rx="3.98925" ry="3.99065" fill="#D9D9D9"/>
<ellipse opacity="0.4" cx="255.312" cy="143.664" rx="3.98925" ry="3.99065" fill="#D9D9D9"/>
<ellipse opacity="0.4" cx="255.312" cy="283.336" rx="3.98925" ry="3.99066" fill="#D9D9D9"/>
<ellipse opacity="0.4" cx="255.312" cy="31.9262" rx="3.98925" ry="3.99065" fill="#D9D9D9"/>
<ellipse opacity="0.4" cx="255.312" cy="171.598" rx="3.98925" ry="3.99065" fill="#D9D9D9"/>
<ellipse opacity="0.4" cx="255.312" cy="311.272" rx="3.98925" ry="3.99066" fill="#D9D9D9"/>
<ellipse opacity="0.4" cx="255.312" cy="59.8598" rx="3.98925" ry="3.99065" fill="#D9D9D9"/>
<ellipse opacity="0.4" cx="255.312" cy="199.534" rx="3.98925" ry="3.99065" fill="#D9D9D9"/>
<ellipse opacity="0.4" cx="255.312" cy="339.206" rx="3.98925" ry="3.99065" fill="#D9D9D9"/>
<ellipse opacity="0.4" cx="255.312" cy="87.7953" rx="3.98925" ry="3.99065" fill="#D9D9D9"/>
<ellipse opacity="0.4" cx="255.312" cy="227.467" rx="3.98925" ry="3.99065" fill="#D9D9D9"/>
<ellipse opacity="0.4" cx="255.312" cy="367.141" rx="3.98925" ry="3.99065" fill="#D9D9D9"/>
<ellipse opacity="0.4" cx="255.312" cy="115.729" rx="3.98925" ry="3.99065" fill="#D9D9D9"/>
<ellipse opacity="0.4" cx="255.312" cy="255.403" rx="3.98925" ry="3.99065" fill="#D9D9D9"/>
<ellipse opacity="0.4" cx="255.312" cy="395.075" rx="3.98925" ry="3.99066" fill="#D9D9D9"/>
<ellipse opacity="0.4" cx="255.312" cy="423.01" rx="3.98925" ry="3.99066" fill="#D9D9D9"/>
<ellipse opacity="0.4" cx="283.237" cy="3.99065" rx="3.98924" ry="3.99065" fill="#D9D9D9"/>
<ellipse opacity="0.4" cx="283.237" cy="143.664" rx="3.98924" ry="3.99065" fill="#D9D9D9"/>
<ellipse opacity="0.4" cx="283.237" cy="283.336" rx="3.98924" ry="3.99066" fill="#D9D9D9"/>
<ellipse opacity="0.4" cx="283.237" cy="31.9262" rx="3.98924" ry="3.99065" fill="#D9D9D9"/>
<ellipse opacity="0.4" cx="283.237" cy="171.598" rx="3.98924" ry="3.99065" fill="#D9D9D9"/>
<ellipse opacity="0.4" cx="283.237" cy="311.272" rx="3.98924" ry="3.99066" fill="#D9D9D9"/>
<ellipse opacity="0.4" cx="283.237" cy="59.8598" rx="3.98924" ry="3.99065" fill="#D9D9D9"/>
<ellipse opacity="0.4" cx="283.237" cy="199.534" rx="3.98924" ry="3.99065" fill="#D9D9D9"/>
<ellipse opacity="0.4" cx="283.237" cy="339.206" rx="3.98924" ry="3.99065" fill="#D9D9D9"/>
<ellipse opacity="0.4" cx="283.237" cy="87.7953" rx="3.98924" ry="3.99065" fill="#D9D9D9"/>
<ellipse opacity="0.4" cx="283.237" cy="227.467" rx="3.98924" ry="3.99065" fill="#D9D9D9"/>
<ellipse opacity="0.4" cx="283.237" cy="367.141" rx="3.98924" ry="3.99065" fill="#D9D9D9"/>
<ellipse opacity="0.4" cx="283.237" cy="115.729" rx="3.98924" ry="3.99065" fill="#D9D9D9"/>
<ellipse opacity="0.4" cx="283.237" cy="255.403" rx="3.98924" ry="3.99065" fill="#D9D9D9"/>
<ellipse opacity="0.4" cx="283.237" cy="395.075" rx="3.98924" ry="3.99066" fill="#D9D9D9"/>
<ellipse opacity="0.4" cx="283.237" cy="423.01" rx="3.98924" ry="3.99066" fill="#D9D9D9"/>
<ellipse opacity="0.4" cx="311.161" cy="3.99065" rx="3.98924" ry="3.99065" fill="#D9D9D9"/>
<ellipse opacity="0.4" cx="311.161" cy="143.664" rx="3.98924" ry="3.99065" fill="#D9D9D9"/>
<ellipse opacity="0.4" cx="311.161" cy="283.336" rx="3.98924" ry="3.99066" fill="#D9D9D9"/>
<ellipse opacity="0.4" cx="311.161" cy="31.9262" rx="3.98924" ry="3.99065" fill="#D9D9D9"/>
<ellipse opacity="0.4" cx="311.161" cy="171.598" rx="3.98924" ry="3.99065" fill="#D9D9D9"/>
<ellipse opacity="0.4" cx="311.161" cy="311.272" rx="3.98924" ry="3.99066" fill="#D9D9D9"/>
<ellipse opacity="0.4" cx="311.161" cy="59.8598" rx="3.98924" ry="3.99065" fill="#D9D9D9"/>
<ellipse opacity="0.4" cx="311.161" cy="199.534" rx="3.98924" ry="3.99065" fill="#D9D9D9"/>
<ellipse opacity="0.4" cx="311.161" cy="339.206" rx="3.98924" ry="3.99065" fill="#D9D9D9"/>
<ellipse opacity="0.4" cx="311.161" cy="87.7953" rx="3.98924" ry="3.99065" fill="#D9D9D9"/>
<ellipse opacity="0.4" cx="311.161" cy="227.467" rx="3.98924" ry="3.99065" fill="#D9D9D9"/>
<ellipse opacity="0.4" cx="311.161" cy="367.141" rx="3.98924" ry="3.99065" fill="#D9D9D9"/>
<ellipse opacity="0.4" cx="311.161" cy="115.729" rx="3.98924" ry="3.99065" fill="#D9D9D9"/>
<ellipse opacity="0.4" cx="311.161" cy="255.403" rx="3.98924" ry="3.99065" fill="#D9D9D9"/>
<ellipse opacity="0.4" cx="311.161" cy="395.075" rx="3.98924" ry="3.99066" fill="#D9D9D9"/>
<ellipse opacity="0.4" cx="311.161" cy="423.01" rx="3.98924" ry="3.99066" fill="#D9D9D9"/>
<ellipse opacity="0.4" cx="339.086" cy="3.99065" rx="3.98924" ry="3.99065" fill="#D9D9D9"/>
<ellipse opacity="0.4" cx="339.086" cy="143.664" rx="3.98924" ry="3.99065" fill="#D9D9D9"/>
<ellipse opacity="0.4" cx="339.086" cy="283.336" rx="3.98924" ry="3.99066" fill="#D9D9D9"/>
<ellipse opacity="0.4" cx="339.086" cy="31.9262" rx="3.98924" ry="3.99065" fill="#D9D9D9"/>
<ellipse opacity="0.4" cx="339.086" cy="171.598" rx="3.98924" ry="3.99065" fill="#D9D9D9"/>
<ellipse opacity="0.4" cx="339.086" cy="311.272" rx="3.98924" ry="3.99066" fill="#D9D9D9"/>
<ellipse opacity="0.4" cx="339.086" cy="59.8598" rx="3.98924" ry="3.99065" fill="#D9D9D9"/>
<ellipse opacity="0.4" cx="339.086" cy="199.534" rx="3.98924" ry="3.99065" fill="#D9D9D9"/>
<ellipse opacity="0.4" cx="339.086" cy="339.206" rx="3.98924" ry="3.99065" fill="#D9D9D9"/>
<ellipse opacity="0.4" cx="339.086" cy="87.7953" rx="3.98924" ry="3.99065" fill="#D9D9D9"/>
<ellipse opacity="0.4" cx="339.086" cy="227.467" rx="3.98924" ry="3.99065" fill="#D9D9D9"/>
<ellipse opacity="0.4" cx="339.086" cy="367.141" rx="3.98924" ry="3.99065" fill="#D9D9D9"/>
<ellipse opacity="0.4" cx="339.086" cy="115.729" rx="3.98924" ry="3.99065" fill="#D9D9D9"/>
<ellipse opacity="0.4" cx="339.086" cy="255.403" rx="3.98924" ry="3.99065" fill="#D9D9D9"/>
<ellipse opacity="0.4" cx="339.086" cy="395.075" rx="3.98924" ry="3.99066" fill="#D9D9D9"/>
<ellipse opacity="0.4" cx="339.086" cy="423.01" rx="3.98924" ry="3.99066" fill="#D9D9D9"/>
<ellipse opacity="0.4" cx="367.011" cy="3.99065" rx="3.98924" ry="3.99065" fill="#D9D9D9"/>
<ellipse opacity="0.4" cx="367.011" cy="143.664" rx="3.98924" ry="3.99065" fill="#D9D9D9"/>
<ellipse opacity="0.4" cx="367.011" cy="283.336" rx="3.98924" ry="3.99066" fill="#D9D9D9"/>
<ellipse opacity="0.4" cx="367.011" cy="31.9262" rx="3.98924" ry="3.99065" fill="#D9D9D9"/>
<ellipse opacity="0.4" cx="367.011" cy="171.598" rx="3.98924" ry="3.99065" fill="#D9D9D9"/>
<ellipse opacity="0.4" cx="367.011" cy="311.272" rx="3.98924" ry="3.99066" fill="#D9D9D9"/>
<ellipse opacity="0.4" cx="367.011" cy="59.8598" rx="3.98924" ry="3.99065" fill="#D9D9D9"/>
<ellipse opacity="0.4" cx="367.011" cy="199.534" rx="3.98924" ry="3.99065" fill="#D9D9D9"/>
<ellipse opacity="0.4" cx="367.011" cy="339.206" rx="3.98924" ry="3.99065" fill="#D9D9D9"/>
<ellipse opacity="0.4" cx="367.011" cy="87.7953" rx="3.98924" ry="3.99065" fill="#D9D9D9"/>
<ellipse opacity="0.4" cx="367.011" cy="227.467" rx="3.98924" ry="3.99065" fill="#D9D9D9"/>
<ellipse opacity="0.4" cx="367.011" cy="367.141" rx="3.98924" ry="3.99065" fill="#D9D9D9"/>
<ellipse opacity="0.4" cx="367.011" cy="115.729" rx="3.98924" ry="3.99065" fill="#D9D9D9"/>
<ellipse opacity="0.4" cx="367.011" cy="255.403" rx="3.98924" ry="3.99065" fill="#D9D9D9"/>
<ellipse opacity="0.4" cx="367.011" cy="395.075" rx="3.98924" ry="3.99066" fill="#D9D9D9"/>
<ellipse opacity="0.4" cx="367.011" cy="423.01" rx="3.98924" ry="3.99066" fill="#D9D9D9"/>
</g>
</svg>
