<svg width="351" height="701" viewBox="0 0 351 701" fill="none" xmlns="http://www.w3.org/2000/svg">
<path d="M348.529 162.518C348.747 162.517 348.963 162.56 349.164 162.643C349.365 162.726 349.548 162.848 349.702 163.002C349.856 163.156 349.978 163.339 350.061 163.54C350.144 163.741 350.187 163.957 350.186 164.175V241.138C350.186 241.356 350.143 241.571 350.06 241.772C349.977 241.973 349.855 242.155 349.701 242.309C349.547 242.462 349.364 242.584 349.163 242.667C348.962 242.75 348.746 242.792 348.529 242.792H335.764C335.546 242.792 335.331 242.75 335.13 242.667C334.929 242.584 334.746 242.462 334.592 242.309C334.438 242.155 334.316 241.973 334.233 241.772C334.149 241.571 334.106 241.356 334.106 241.138V164.175C334.106 163.256 334.841 162.521 335.76 162.521L348.529 162.518Z" fill="black"/>
<mask id="mask0_501_1806" style="mask-type:luminance" maskUnits="userSpaceOnUse" x="334" y="162" width="17" height="81">
<path d="M348.529 162.517C348.747 162.517 348.962 162.559 349.163 162.642C349.364 162.725 349.547 162.847 349.701 163C349.855 163.154 349.977 163.336 350.06 163.537C350.144 163.738 350.187 163.953 350.187 164.171V241.134C350.187 242.053 349.448 242.791 348.529 242.791H335.764C335.546 242.792 335.331 242.749 335.13 242.667C334.929 242.584 334.746 242.462 334.592 242.308C334.438 242.155 334.316 241.972 334.233 241.771C334.15 241.571 334.107 241.355 334.107 241.138V164.171C334.106 163.953 334.149 163.738 334.232 163.537C334.314 163.336 334.436 163.153 334.59 162.999C334.743 162.845 334.926 162.723 335.127 162.64C335.328 162.557 335.543 162.514 335.76 162.514L348.529 162.517Z" fill="white"/>
</mask>
<g mask="url(#mask0_501_1806)">
<path d="M348.177 163.994C348.371 163.994 348.564 164.032 348.743 164.106C348.922 164.18 349.085 164.288 349.223 164.426C349.36 164.563 349.469 164.726 349.543 164.905C349.617 165.085 349.655 165.277 349.654 165.471V239.837C349.654 240.656 348.993 241.314 348.177 241.314H347.718V163.994H348.177Z" fill="url(#paint0_linear_501_1806)"/>
</g>
<path d="M14.6128 95.0938H1.84374C0.928485 95.0938 0.186523 95.8357 0.186523 96.751V120.691C0.186523 121.606 0.928485 122.348 1.84374 122.348H14.6128C15.528 122.348 16.27 121.606 16.27 120.691V96.751C16.27 95.8357 15.528 95.0938 14.6128 95.0938Z" fill="black"/>
<mask id="mask1_501_1806" style="mask-type:luminance" maskUnits="userSpaceOnUse" x="0" y="95" width="17" height="28">
<path d="M14.6128 95.0938H1.84374C0.928486 95.0938 0.186523 95.8357 0.186523 96.751V120.691C0.186523 121.606 0.928486 122.348 1.84374 122.348H14.6128C15.528 122.348 16.27 121.606 16.27 120.691V96.751C16.27 95.8357 15.528 95.0938 14.6128 95.0938Z" fill="white"/>
</mask>
<g mask="url(#mask1_501_1806)">
<path d="M2.19959 96.5703C2.00517 96.5694 1.81247 96.6069 1.63261 96.6807C1.45274 96.7546 1.28927 96.8633 1.15162 97.0006C1.01396 97.1379 0.904848 97.3011 0.830556 97.4808C0.756264 97.6605 0.718267 97.8531 0.718755 98.0475V119.389C0.718755 120.209 1.38017 120.866 2.19592 120.866H2.65524V96.5703H2.19959Z" fill="url(#paint1_linear_501_1806)"/>
</g>
<path d="M1.84374 145.916C1.62629 145.915 1.41087 145.958 1.20983 146.041C1.00879 146.123 0.826069 146.245 0.672133 146.399C0.518198 146.552 0.396071 146.735 0.312743 146.936C0.229415 147.137 0.186523 147.352 0.186523 147.569L0.186523 195.019C0.186523 195.937 0.925106 196.676 1.84374 196.676H14.6091C14.8266 196.676 15.042 196.634 15.243 196.551C15.444 196.468 15.6268 196.346 15.7807 196.193C15.9346 196.039 16.0568 195.857 16.1401 195.656C16.2234 195.455 16.2663 195.24 16.2663 195.022V147.569C16.2668 147.352 16.2244 147.136 16.1415 146.935C16.0586 146.734 15.9369 146.552 15.7833 146.398C15.6297 146.244 15.4473 146.122 15.2464 146.038C15.0455 145.955 14.8302 145.912 14.6128 145.912L1.84374 145.916Z" fill="black"/>
<path d="M1.84375 209.75C1.62598 209.75 1.41026 209.792 1.20898 209.875C1.0077 209.958 0.824819 210.08 0.670835 210.234C0.516852 210.388 0.3948 210.571 0.311689 210.772C0.228578 210.974 0.186043 211.189 0.186528 211.407V258.857C0.186528 259.775 0.92511 260.51 1.84375 260.51H14.6091C14.8266 260.511 15.042 260.468 15.243 260.385C15.4441 260.302 15.6268 260.181 15.7807 260.027C15.9346 259.874 16.0568 259.691 16.1401 259.49C16.2234 259.289 16.2663 259.074 16.2663 258.857V211.404C16.2663 210.965 16.0921 210.544 15.782 210.234C15.4719 209.924 15.0513 209.75 14.6128 209.75H1.84375Z" fill="black"/>
<mask id="mask2_501_1806" style="mask-type:luminance" maskUnits="userSpaceOnUse" x="0" y="209" width="17" height="52">
<path d="M1.84374 209.754C1.62629 209.753 1.41087 209.796 1.20983 209.878C1.00879 209.961 0.826069 210.083 0.672133 210.237C0.518198 210.39 0.396071 210.573 0.312743 210.774C0.229415 210.974 0.186523 211.19 0.186523 211.407L0.186523 258.857C0.186523 259.775 0.925106 260.514 1.84374 260.514H14.6091C14.8266 260.514 15.042 260.472 15.243 260.389C15.444 260.306 15.6268 260.184 15.7807 260.031C15.9346 259.877 16.0568 259.695 16.1401 259.494C16.2234 259.293 16.2663 259.078 16.2663 258.86V211.407C16.2668 211.19 16.2244 210.974 16.1415 210.773C16.0586 210.572 15.9369 210.39 15.7833 210.236C15.6297 210.082 15.4473 209.96 15.2464 209.876C15.0455 209.793 14.8302 209.75 14.6128 209.75L1.84374 209.754Z" fill="white"/>
</mask>
<g mask="url(#mask2_501_1806)">
<path d="M2.1969 211.23C2.00278 211.23 1.81047 211.268 1.63104 211.342C1.4516 211.416 1.28857 211.525 1.1513 211.662C1.01404 211.799 0.905249 211.962 0.831187 212.142C0.757124 212.321 0.719246 212.514 0.719731 212.708V257.559C0.719731 258.379 1.38115 259.036 2.1969 259.036H2.65621V211.23H2.1969Z" fill="url(#paint2_linear_501_1806)"/>
</g>
<path d="M51.3077 0.000111148C44.5657 -0.0139364 37.8872 1.30371 31.6557 3.87741C25.4242 6.45111 19.7624 10.2302 14.9952 14.9977C10.228 19.7653 6.44928 25.4274 3.87602 31.6591C1.30276 37.8908 -0.0144034 44.5693 0.000126989 51.3114V648.917C-0.0148897 655.659 1.30204 662.339 3.87531 668.571C6.44858 674.803 10.2275 680.466 14.9951 685.234C19.7628 690.002 25.4252 693.781 31.6574 696.355C37.8896 698.929 44.5687 700.246 51.3114 700.232H155.305L157.428 697.219H188.754L190.885 700.232H294.875C301.617 700.246 308.297 698.929 314.529 696.355C320.761 693.781 326.423 690.002 331.191 685.234C335.959 680.466 339.738 674.803 342.311 668.571C344.884 662.339 346.201 655.659 346.186 648.917V51.3114C346.2 44.569 344.882 37.8903 342.308 31.6585C339.734 25.4268 335.955 19.7648 331.187 14.9975C326.419 10.2303 320.757 6.45166 314.524 3.87862C308.292 1.30558 301.613 -0.0112292 294.871 0.0037857L51.3077 0.000111148Z" fill="black"/>
<path d="M3.26172 629.162H7.31106V72.9355H3.26172V629.162Z" fill="#EBEBEB"/>
<path d="M347.111 633.953H343.061V649.974C343.074 656.104 341.877 662.176 339.537 667.841C337.197 673.507 333.762 678.654 329.428 682.989C325.093 687.323 319.946 690.759 314.28 693.098C308.614 695.438 302.543 696.636 296.413 696.622H53.9595C47.8302 696.635 41.7587 695.437 36.0936 693.097C30.4285 690.757 25.2813 687.322 20.9474 682.987C16.6135 678.653 13.1782 673.506 10.8388 667.84C8.49932 662.175 7.30178 656.103 7.31485 649.974V633.953H3.26184V647.854C3.2473 654.697 4.58446 661.476 7.19654 667.801C9.80862 674.126 13.6442 679.873 18.4831 684.712C23.322 689.551 29.0689 693.386 35.3941 695.999C41.7192 698.611 48.4979 699.948 55.3411 699.933H295.024C301.868 699.948 308.647 698.611 314.973 695.999C321.299 693.387 327.046 689.551 331.886 684.712C336.725 679.873 340.561 674.125 343.173 667.799C345.785 661.473 347.122 654.694 347.107 647.85L347.111 633.953Z" fill="#EBEBEB"/>
<path d="M347.111 629.162H343.062V633.954H347.111V629.162Z" fill="#7D7E7F"/>
<path d="M347.111 72.9316H343.062V629.165H347.111V72.9316Z" fill="#EBEBEB"/>
<path d="M347.111 68.1426H343.062V72.9305H347.111V68.1426Z" fill="#7D7E7F"/>
<path d="M55.3448 2.28528C48.5012 2.27027 41.7221 3.60706 35.3966 6.21892C29.0711 8.83079 23.3237 12.6663 18.4844 17.5052C13.6451 22.3442 9.8092 28.0913 7.19689 34.4166C4.58458 40.742 3.2473 47.521 3.26184 54.3645V68.1441H7.31118V52.7955C7.2981 46.6661 8.49579 40.5944 10.8355 34.9291C13.1752 29.2638 16.6109 24.1163 20.9452 19.7823C25.2796 15.4483 30.4272 12.0131 36.0928 9.67381C41.7583 7.33455 47.83 6.13734 53.9595 6.1509H296.413C302.542 6.13782 308.614 7.33551 314.279 9.67522C319.945 12.0149 325.092 15.4506 329.426 19.7849C333.76 24.1193 337.195 29.267 339.535 34.9325C341.874 40.598 343.071 46.6698 343.058 52.7992V68.1441H347.107V54.3645C347.122 47.5216 345.784 40.7432 343.173 34.4183C340.561 28.0935 336.726 22.3467 331.887 17.5078C327.049 12.669 321.302 8.83334 314.977 6.22104C308.653 3.60874 301.874 2.27123 295.031 2.28528H55.3448Z" fill="#EBEBEB"/>
<mask id="mask3_501_1806" style="mask-type:luminance" maskUnits="userSpaceOnUse" x="3" y="2" width="345" height="698">
<path d="M55.344 2.03711C26.4907 2.03711 3.26074 25.2661 3.26074 54.1203V647.599C3.26074 676.453 26.4907 699.683 55.344 699.683H295.025C323.878 699.683 347.108 676.453 347.108 647.599V54.1203C347.108 25.2661 323.878 2.03711 295.025 2.03711H55.344ZM53.9605 5.90456H296.408C322.253 5.90456 343.058 26.7079 343.058 52.5512V649.72C343.058 675.563 322.253 696.368 296.408 696.368H53.9605C28.1163 696.368 7.31097 675.563 7.31097 649.72V52.5522C7.31097 26.7079 28.1163 5.90456 53.9605 5.90456Z" fill="white"/>
</mask>
<g mask="url(#mask3_501_1806)">
<path fill-rule="evenodd" clip-rule="evenodd" d="M37.0568 11.3371C30.6529 11.1738 18.4487 13.1124 5.91596 27.1968C-12.313 47.6822 4.00557 35.3556 4.00557 35.3556C4.00557 35.3556 15.2035 17.9958 30.8288 15.7383C46.4532 13.4818 41.6787 11.9175 41.6787 11.9175C41.6787 11.9175 39.9676 11.412 37.0568 11.3371ZM313.312 11.3371C310.401 11.411 308.69 11.9185 308.69 11.9185C308.69 11.9185 303.916 13.4818 319.54 15.7393C335.165 17.9968 346.363 35.3556 346.363 35.3556C346.363 35.3556 362.682 47.6822 344.453 27.1968C331.921 13.1124 319.716 11.1748 313.313 11.3371H313.312ZM-2.18449 663.069C-3.5835 662.902 -2.62879 665.295 5.91596 674.897C24.1449 695.383 41.6787 690.175 41.6787 690.175C41.6787 690.175 46.4532 688.612 30.8288 686.354C15.2035 684.099 4.00557 666.738 4.00557 666.738C4.00557 666.738 -0.599793 663.259 -2.18449 663.069ZM352.554 663.069C350.969 663.259 346.363 666.738 346.363 666.738C346.363 666.738 335.166 684.098 319.54 686.355C303.916 688.612 308.69 690.176 308.69 690.176C308.69 690.176 326.224 695.383 344.453 674.897C352.999 665.294 353.952 662.902 352.554 663.069Z" fill="#434343"/>
</g>
<path d="M316.303 15.0174C315.162 14.9046 315.7 16.0431 318.263 18.4162C326.717 26.2474 331.966 37.5824 331.966 50.1997V652.138C331.966 664.755 326.716 676.09 318.263 683.921C315.7 686.294 315.162 687.433 316.303 687.32C316.989 687.252 318.279 686.734 320.099 685.763C332.455 679.171 339.63 664.949 339.63 649.844V52.4932C339.63 37.3879 332.455 23.1665 320.099 16.5749C318.279 15.6036 316.988 15.0854 316.303 15.0174Z" fill="url(#paint3_linear_501_1806)"/>
<path d="M34.0652 15.0171C35.208 14.9068 34.6679 16.0423 32.1067 18.416C23.6553 26.2465 18.4007 37.5824 18.4007 50.2008V652.146C18.4007 664.76 23.6553 676.096 32.1067 683.93C34.6679 686.301 35.208 687.44 34.0652 687.326C33.3818 687.26 32.092 686.738 30.2694 685.771C17.9156 679.179 10.7393 664.955 10.7393 649.853V52.4937C10.7393 37.3877 17.9156 23.1672 30.2694 16.5751C32.092 15.6013 33.3818 15.0832 34.0652 15.0171Z" fill="url(#paint4_linear_501_1806)"/>
<path d="M193.717 26.7656H157.262C155.798 26.7656 154.612 27.951 154.612 29.4131C154.612 30.8753 155.798 32.0606 157.262 32.0606H193.717C195.18 32.0606 196.366 30.8753 196.366 29.4131C196.366 27.951 195.18 26.7656 193.717 26.7656Z" fill="#1E1E1E"/>
<path d="M212.998 34.0154C215.727 34.0154 217.94 31.8026 217.94 29.0731C217.94 26.3436 215.727 24.1309 212.998 24.1309C210.268 24.1309 208.056 26.3436 208.056 29.0731C208.056 31.8026 210.268 34.0154 212.998 34.0154Z" fill="#2B2B2B"/>
<path d="M212.998 33.0302C215.183 33.0302 216.955 31.2584 216.955 29.0727C216.955 26.8871 215.183 25.1152 212.998 25.1152C210.812 25.1152 209.04 26.8871 209.04 29.0727C209.04 31.2584 210.812 33.0302 212.998 33.0302Z" fill="#0A0D13"/>
<path d="M212.997 32.0902C214.663 32.0902 216.014 30.7396 216.014 29.0734C216.014 27.4073 214.663 26.0566 212.997 26.0566C211.331 26.0566 209.98 27.4073 209.98 29.0734C209.98 30.7396 211.331 32.0902 212.997 32.0902Z" fill="#091427"/>
<path fill-rule="evenodd" clip-rule="evenodd" d="M210.922 27.0527C210.561 27.0895 210.054 27.6407 210.018 28.71C209.981 29.7829 210.451 30.3672 210.716 30.3672C210.977 30.3672 212.068 28.8018 210.922 27.0527Z" fill="#235A91" fill-opacity="0.556"/>
<path fill-rule="evenodd" clip-rule="evenodd" d="M213.49 26.6767C212.924 26.8494 212.818 27.7644 212.84 28.2825C212.862 28.8042 213.597 30.1712 214.489 29.8662C215.379 29.5649 215.529 28.4331 215.162 27.6762C214.794 26.9155 214.118 26.3754 213.49 26.6767Z" fill="#235A91" fill-opacity="0.556"/>
<path d="M148.051 29.5268C148.051 30.5537 147.644 31.5389 146.919 32.2667C146.195 32.9946 145.212 33.406 144.185 33.4108C143.157 33.4147 142.169 33.0108 141.438 32.2875C140.707 31.5643 140.293 30.5807 140.286 29.5525C140.279 28.5256 140.679 27.5377 141.399 26.805C142.119 26.0723 143.099 25.6545 144.126 25.6428C145.154 25.6311 146.144 26.027 146.88 26.744C147.617 27.4609 148.039 28.4405 148.054 29.468L144.17 29.5268H148.051Z" fill="#0F0F0F"/>
<path d="M126.025 29.6155C126.025 31.1418 125.41 32.6059 124.316 33.6872C123.222 34.7685 121.737 35.3788 120.186 35.3846C118.636 35.3894 117.147 34.7898 116.046 33.7169C114.944 32.644 114.319 31.1852 114.307 29.6596C114.297 28.1344 114.901 26.6674 115.987 25.5795C117.073 24.4915 118.552 23.871 120.102 23.8539C121.651 23.8374 123.143 24.4254 124.253 25.4892C125.363 26.5531 126 28.0062 126.025 29.531L120.164 29.6155H126.025Z" fill="#101010"/>
<path d="M53.9228 9.54891C45.8089 9.53351 37.8565 11.8165 30.9863 16.1337V21.6639C37.5357 17.3683 45.2012 15.0878 53.0336 15.1048H297.828C305.985 15.1048 313.555 17.519 319.875 21.6639V16.1374C313.006 11.82 305.055 9.53687 296.942 9.55258H150.086L53.9228 9.54891Z" fill="url(#paint5_linear_501_1806)"/>
<path d="M53.9228 692.304C45.8089 692.32 37.8565 690.037 30.9863 685.72V680.189C37.5357 684.485 45.2012 686.765 53.0336 686.748H297.828C305.66 686.765 313.325 684.484 319.875 680.189V685.72C313.006 690.037 305.055 692.32 296.942 692.304H150.086H53.9228Z" fill="url(#paint6_linear_501_1806)"/>
<path d="M54.4161 21.6641C37.1409 21.6641 23.2344 35.5706 23.2344 52.8448V649.001C23.2344 666.275 37.1409 680.182 54.4151 680.182H295.953C313.227 680.182 327.134 666.275 327.134 649.001V52.8448C327.134 35.5706 313.227 21.6641 295.953 21.6641H265.452C264.07 21.6641 262.745 22.2129 261.768 23.1898C260.791 24.1667 260.243 25.4916 260.243 26.8732V29.2706C260.243 38.6563 252.689 46.2124 243.303 46.2124H107.065C104.839 46.2172 102.634 45.7823 100.576 44.9326C98.5188 44.0829 96.6493 42.8352 95.0753 41.261C93.5013 39.6868 92.2538 37.8172 91.4043 35.7596C90.5549 33.7019 90.1202 31.4967 90.1253 29.2706V26.8741C90.1253 26.1901 89.9906 25.5127 89.7288 24.8807C89.467 24.2487 89.0833 23.6745 88.5996 23.1907C88.1159 22.707 87.5417 22.3233 86.9097 22.0616C86.2777 21.7998 85.6003 21.665 84.9162 21.665L54.4161 21.6641Z" fill="url(#paint7_linear_501_1806)"/>
<path d="M244.168 28.9999C244.167 31.0505 243.345 33.0172 241.882 34.4696C240.418 35.922 238.433 36.7418 236.36 36.7495C234.287 36.7563 232.296 35.9505 230.822 34.5084C229.348 33.0664 228.512 31.1055 228.496 29.055C228.481 27.0054 229.288 25.0334 230.738 23.5702C232.189 22.107 234.167 21.2715 236.239 21.2466C238.312 21.2233 240.31 22.0138 241.796 23.4449C243.282 24.8761 244.133 26.8312 244.165 28.8823L236.327 28.9962L244.168 28.9999Z" fill="#0F0F0F"/>
<path d="M66.0201 162.08V140.983H70.4805V158.403H79.5249V162.08H66.0201ZM89.6072 162.389C87.9796 162.389 86.5786 162.059 85.4043 161.4C84.2368 160.734 83.3372 159.793 82.7054 158.578C82.0736 157.355 81.7577 155.91 81.7577 154.241C81.7577 152.613 82.0736 151.185 82.7054 149.956C83.3372 148.726 84.2265 147.768 85.3734 147.082C86.5271 146.395 87.88 146.052 89.432 146.052C90.4759 146.052 91.4476 146.22 92.3473 146.556C93.2538 146.886 94.0435 147.384 94.7165 148.05C95.3964 148.716 95.9252 149.554 96.3029 150.563C96.6806 151.566 96.8695 152.74 96.8695 154.086V155.292H83.5089V152.572H92.7387C92.7387 151.94 92.6014 151.381 92.3267 150.893C92.052 150.405 91.6708 150.024 91.1832 149.75C90.7025 149.468 90.1428 149.327 89.5041 149.327C88.838 149.327 88.2474 149.482 87.7323 149.791C87.2242 150.093 86.8258 150.502 86.5374 151.017C86.249 151.525 86.1013 152.091 86.0945 152.716V155.302C86.0945 156.085 86.2387 156.761 86.5271 157.331C86.8224 157.901 87.2379 158.341 87.7736 158.65C88.3092 158.959 88.9444 159.113 89.6793 159.113C90.1668 159.113 90.6132 159.045 91.0184 158.907C91.4236 158.77 91.7704 158.564 92.0588 158.289C92.3473 158.015 92.567 157.678 92.7181 157.28L96.7767 157.548C96.5707 158.523 96.1484 159.374 95.5097 160.102C94.8779 160.823 94.0607 161.386 93.058 161.792C92.0623 162.19 90.912 162.389 89.6072 162.389ZM108.149 146.258V149.554H98.6206V146.258H108.149ZM100.784 142.467H105.172V157.218C105.172 157.623 105.234 157.939 105.358 158.166C105.481 158.385 105.653 158.54 105.873 158.629C106.099 158.718 106.36 158.763 106.656 158.763C106.862 158.763 107.068 158.746 107.274 158.712C107.48 158.67 107.638 158.639 107.747 158.619L108.438 161.884C108.218 161.953 107.909 162.032 107.511 162.121C107.112 162.217 106.628 162.276 106.058 162.296C105 162.338 104.073 162.197 103.277 161.874C102.487 161.551 101.872 161.05 101.433 160.37C100.993 159.69 100.777 158.832 100.784 157.795V142.467ZM113.83 140.983V148.998H110.699V140.983H113.83ZM130.235 150.769L126.217 151.017C126.149 150.673 126.001 150.364 125.774 150.09C125.548 149.808 125.249 149.585 124.878 149.42C124.514 149.248 124.078 149.162 123.57 149.162C122.89 149.162 122.317 149.307 121.85 149.595C121.383 149.877 121.149 150.254 121.149 150.728C121.149 151.106 121.3 151.425 121.602 151.686C121.905 151.947 122.423 152.157 123.158 152.315L126.022 152.891C127.56 153.207 128.707 153.716 129.462 154.416C130.218 155.117 130.595 156.037 130.595 157.177C130.595 158.214 130.29 159.124 129.679 159.907C129.074 160.689 128.243 161.301 127.186 161.74C126.135 162.173 124.923 162.389 123.549 162.389C121.455 162.389 119.786 161.953 118.543 161.081C117.307 160.202 116.582 159.007 116.37 157.496L120.686 157.269C120.816 157.908 121.132 158.396 121.633 158.732C122.135 159.062 122.777 159.227 123.56 159.227C124.329 159.227 124.947 159.079 125.414 158.784C125.888 158.482 126.128 158.094 126.135 157.62C126.128 157.221 125.96 156.895 125.63 156.641C125.301 156.38 124.792 156.181 124.106 156.044L121.366 155.498C119.82 155.189 118.67 154.653 117.915 153.891C117.166 153.128 116.792 152.157 116.792 150.975C116.792 149.959 117.067 149.083 117.616 148.349C118.172 147.614 118.952 147.047 119.954 146.649C120.964 146.251 122.145 146.052 123.498 146.052C125.496 146.052 127.069 146.474 128.216 147.319C129.37 148.163 130.043 149.314 130.235 150.769ZM147.221 162.389C145.601 162.389 144.207 162.046 143.039 161.359C141.879 160.665 140.986 159.704 140.361 158.475C139.743 157.245 139.434 155.831 139.434 154.231C139.434 152.61 139.746 151.188 140.371 149.966C141.003 148.737 141.899 147.779 143.06 147.092C144.22 146.398 145.601 146.052 147.201 146.052C148.581 146.052 149.79 146.302 150.827 146.803C151.864 147.305 152.684 148.009 153.289 148.915C153.893 149.822 154.226 150.886 154.288 152.109H150.147C150.03 151.319 149.721 150.684 149.22 150.203C148.725 149.715 148.076 149.471 147.273 149.471C146.593 149.471 145.999 149.657 145.491 150.028C144.989 150.392 144.598 150.924 144.316 151.624C144.035 152.325 143.894 153.173 143.894 154.169C143.894 155.178 144.031 156.037 144.306 156.744C144.588 157.451 144.983 157.991 145.491 158.361C145.999 158.732 146.593 158.918 147.273 158.918C147.774 158.918 148.224 158.815 148.622 158.609C149.028 158.403 149.361 158.104 149.622 157.712C149.889 157.314 150.065 156.837 150.147 156.281H154.288C154.219 157.489 153.89 158.554 153.299 159.474C152.715 160.387 151.908 161.101 150.878 161.617C149.848 162.132 148.629 162.389 147.221 162.389ZM161.486 152.933V162.08H157.098V140.983H161.362V149.049H161.548C161.905 148.115 162.482 147.384 163.278 146.855C164.075 146.319 165.074 146.052 166.276 146.052C167.375 146.052 168.333 146.292 169.15 146.773C169.974 147.246 170.613 147.93 171.066 148.823C171.526 149.708 171.753 150.769 171.746 152.006V162.08H167.358V152.788C167.364 151.813 167.117 151.054 166.616 150.512C166.121 149.969 165.428 149.698 164.535 149.698C163.938 149.698 163.409 149.825 162.949 150.079C162.495 150.333 162.138 150.704 161.877 151.192C161.623 151.672 161.493 152.253 161.486 152.933ZM179.711 162.379C178.702 162.379 177.802 162.204 177.012 161.853C176.223 161.496 175.598 160.971 175.137 160.277C174.684 159.577 174.458 158.705 174.458 157.661C174.458 156.782 174.619 156.044 174.942 155.446C175.265 154.849 175.704 154.368 176.26 154.004C176.817 153.64 177.448 153.365 178.156 153.18C178.87 152.994 179.618 152.864 180.401 152.788C181.322 152.692 182.063 152.603 182.626 152.521C183.19 152.431 183.598 152.301 183.852 152.129C184.106 151.957 184.233 151.703 184.233 151.367V151.305C184.233 150.653 184.027 150.148 183.615 149.791C183.21 149.434 182.633 149.255 181.885 149.255C181.095 149.255 180.467 149.43 180 149.781C179.533 150.124 179.224 150.557 179.073 151.078L175.014 150.749C175.22 149.787 175.625 148.956 176.229 148.256C176.834 147.549 177.613 147.006 178.568 146.628C179.529 146.244 180.642 146.052 181.905 146.052C182.784 146.052 183.626 146.155 184.429 146.361C185.239 146.567 185.957 146.886 186.582 147.319C187.214 147.751 187.712 148.307 188.076 148.987C188.44 149.66 188.622 150.467 188.622 151.408V162.08H184.46V159.886H184.336C184.082 160.38 183.742 160.816 183.317 161.194C182.891 161.565 182.379 161.857 181.782 162.07C181.184 162.276 180.494 162.379 179.711 162.379ZM180.968 159.35C181.613 159.35 182.183 159.223 182.678 158.969C183.172 158.708 183.56 158.358 183.842 157.918C184.124 157.479 184.264 156.981 184.264 156.425V154.746C184.127 154.835 183.938 154.917 183.698 154.993C183.464 155.062 183.2 155.127 182.905 155.189C182.609 155.244 182.314 155.295 182.019 155.343C181.723 155.384 181.456 155.422 181.215 155.456C180.7 155.532 180.25 155.652 179.866 155.817C179.481 155.982 179.182 156.205 178.97 156.487C178.757 156.761 178.65 157.105 178.65 157.517C178.65 158.114 178.867 158.571 179.299 158.887C179.739 159.196 180.295 159.35 180.968 159.35ZM200.442 146.258V149.554H190.914V146.258H200.442ZM193.077 142.467H197.465V157.218C197.465 157.623 197.527 157.939 197.651 158.166C197.774 158.385 197.946 158.54 198.166 158.629C198.392 158.718 198.653 158.763 198.949 158.763C199.155 158.763 199.361 158.746 199.567 158.712C199.773 158.67 199.931 158.639 200.04 158.619L200.731 161.884C200.511 161.953 200.202 162.032 199.804 162.121C199.405 162.217 198.921 162.276 198.351 162.296C197.294 162.338 196.366 162.197 195.57 161.874C194.78 161.551 194.165 161.05 193.726 160.37C193.286 159.69 193.07 158.832 193.077 157.795V142.467Z" fill="white"/>
<path d="M65.5956 195.299V183.662H72.5729V184.912H67.0047V188.844H72.0502V190.094H67.0047V195.299H65.5956ZM74.8044 195.299V186.572H76.1453V195.299H74.8044ZM75.4862 185.117C75.2249 185.117 74.9995 185.028 74.8101 184.85C74.6245 184.672 74.5317 184.458 74.5317 184.208C74.5317 183.958 74.6245 183.744 74.8101 183.566C74.9995 183.388 75.2249 183.299 75.4862 183.299C75.7476 183.299 75.9711 183.388 76.1567 183.566C76.3461 183.744 76.4408 183.958 76.4408 184.208C76.4408 184.458 76.3461 184.672 76.1567 184.85C75.9711 185.028 75.7476 185.117 75.4862 185.117ZM79.9422 183.662V195.299H78.6013V183.662H79.9422ZM83.7391 183.662V195.299H82.3982V183.662H83.7391ZM94.2405 195.481C93.4526 195.481 92.7613 195.293 92.1666 194.918C91.5757 194.543 91.1136 194.019 90.7803 193.344C90.4507 192.67 90.286 191.882 90.286 190.981C90.286 190.072 90.4507 189.278 90.7803 188.6C91.1136 187.922 91.5757 187.395 92.1666 187.02C92.7613 186.645 93.4526 186.458 94.2405 186.458C95.0284 186.458 95.7178 186.645 96.3087 187.02C96.9034 187.395 97.3655 187.922 97.695 188.6C98.0284 189.278 98.195 190.072 98.195 190.981C98.195 191.882 98.0284 192.67 97.695 193.344C97.3655 194.019 96.9034 194.543 96.3087 194.918C95.7178 195.293 95.0284 195.481 94.2405 195.481ZM94.2405 194.276C94.839 194.276 95.3314 194.123 95.7178 193.816C96.1041 193.509 96.3901 193.106 96.5757 192.606C96.7613 192.106 96.8541 191.564 96.8541 190.981C96.8541 190.397 96.7613 189.854 96.5757 189.35C96.3901 188.846 96.1041 188.439 95.7178 188.128C95.3314 187.818 94.839 187.662 94.2405 187.662C93.642 187.662 93.1496 187.818 92.7632 188.128C92.3769 188.439 92.0909 188.846 91.9053 189.35C91.7197 189.854 91.6269 190.397 91.6269 190.981C91.6269 191.564 91.7197 192.106 91.9053 192.606C92.0909 193.106 92.3769 193.509 92.7632 193.816C93.1496 194.123 93.642 194.276 94.2405 194.276ZM105.742 191.731V186.572H107.083V195.299H105.742V193.822H105.651C105.446 194.265 105.128 194.642 104.696 194.952C104.265 195.259 103.719 195.412 103.06 195.412C102.515 195.412 102.03 195.293 101.606 195.055C101.181 194.812 100.848 194.448 100.606 193.964C100.363 193.475 100.242 192.859 100.242 192.117V186.572H101.583V192.026C101.583 192.662 101.761 193.17 102.117 193.549C102.477 193.928 102.935 194.117 103.492 194.117C103.825 194.117 104.164 194.032 104.509 193.861C104.857 193.691 105.149 193.43 105.384 193.077C105.623 192.725 105.742 192.276 105.742 191.731ZM113.334 186.572V187.708H108.812V186.572H113.334ZM110.13 184.481H111.471V192.799C111.471 193.178 111.526 193.462 111.635 193.651C111.749 193.837 111.893 193.962 112.067 194.026C112.245 194.087 112.433 194.117 112.63 194.117C112.777 194.117 112.899 194.109 112.993 194.094C113.088 194.075 113.164 194.06 113.221 194.049L113.493 195.253C113.402 195.287 113.276 195.322 113.113 195.356C112.95 195.394 112.743 195.412 112.493 195.412C112.115 195.412 111.743 195.331 111.38 195.168C111.02 195.005 110.721 194.757 110.482 194.424C110.247 194.09 110.13 193.67 110.13 193.162V184.481ZM123.647 186.572V187.708H119.124V186.572H123.647ZM120.442 184.481H121.783V192.799C121.783 193.178 121.838 193.462 121.948 193.651C122.062 193.837 122.205 193.962 122.38 194.026C122.558 194.087 122.745 194.117 122.942 194.117C123.09 194.117 123.211 194.109 123.306 194.094C123.401 194.075 123.476 194.06 123.533 194.049L123.806 195.253C123.715 195.287 123.588 195.322 123.425 195.356C123.262 195.394 123.056 195.412 122.806 195.412C122.427 195.412 122.056 195.331 121.692 195.168C121.332 195.005 121.033 194.757 120.794 194.424C120.56 194.09 120.442 193.67 120.442 193.162V184.481ZM127.192 190.049V195.299H125.851V183.662H127.192V187.935H127.306C127.51 187.484 127.817 187.126 128.226 186.861C128.639 186.592 129.188 186.458 129.874 186.458C130.469 186.458 130.99 186.577 131.437 186.816C131.883 187.051 132.23 187.412 132.476 187.901C132.726 188.386 132.851 189.003 132.851 189.753V195.299H131.51V189.844C131.51 189.151 131.33 188.615 130.971 188.236C130.615 187.854 130.12 187.662 129.488 187.662C129.048 187.662 128.654 187.755 128.306 187.941C127.961 188.126 127.688 188.397 127.488 188.753C127.291 189.109 127.192 189.541 127.192 190.049ZM138.964 195.481C138.123 195.481 137.397 195.295 136.787 194.924C136.181 194.549 135.714 194.026 135.384 193.356C135.058 192.681 134.895 191.897 134.895 191.003C134.895 190.109 135.058 189.322 135.384 188.64C135.714 187.954 136.172 187.42 136.759 187.037C137.35 186.651 138.039 186.458 138.827 186.458C139.282 186.458 139.731 186.534 140.174 186.685C140.617 186.837 141.02 187.083 141.384 187.424C141.748 187.761 142.037 188.208 142.253 188.765C142.469 189.322 142.577 190.007 142.577 190.822V191.39H135.85V190.231H141.214C141.214 189.738 141.115 189.299 140.918 188.912C140.725 188.526 140.448 188.221 140.089 187.998C139.732 187.774 139.312 187.662 138.827 187.662C138.293 187.662 137.831 187.795 137.441 188.06C137.054 188.322 136.757 188.662 136.549 189.083C136.34 189.503 136.236 189.954 136.236 190.435V191.208C136.236 191.867 136.35 192.426 136.577 192.884C136.808 193.339 137.128 193.685 137.537 193.924C137.946 194.159 138.422 194.276 138.964 194.276C139.316 194.276 139.634 194.227 139.918 194.128C140.206 194.026 140.454 193.875 140.662 193.674C140.871 193.469 141.032 193.215 141.145 192.912L142.441 193.276C142.304 193.715 142.075 194.102 141.753 194.435C141.431 194.765 141.034 195.022 140.56 195.208C140.087 195.39 139.554 195.481 138.964 195.481ZM153.003 186.572V187.708H148.299V186.572H153.003ZM149.708 195.299V185.367C149.708 184.867 149.825 184.45 150.06 184.117C150.295 183.784 150.6 183.534 150.975 183.367C151.35 183.2 151.746 183.117 152.162 183.117C152.492 183.117 152.761 183.144 152.969 183.197C153.178 183.25 153.333 183.299 153.435 183.344L153.049 184.503C152.981 184.481 152.886 184.452 152.765 184.418C152.647 184.384 152.492 184.367 152.299 184.367C151.856 184.367 151.535 184.479 151.339 184.702C151.145 184.926 151.049 185.253 151.049 185.685V195.299H149.708ZM158.069 195.481C157.281 195.481 156.589 195.293 155.995 194.918C155.404 194.543 154.942 194.019 154.608 193.344C154.279 192.67 154.114 191.882 154.114 190.981C154.114 190.072 154.279 189.278 154.608 188.6C154.942 187.922 155.404 187.395 155.995 187.02C156.589 186.645 157.281 186.458 158.069 186.458C158.857 186.458 159.546 186.645 160.137 187.02C160.732 187.395 161.194 187.922 161.523 188.6C161.857 189.278 162.023 190.072 162.023 190.981C162.023 191.882 161.857 192.67 161.523 193.344C161.194 194.019 160.732 194.543 160.137 194.918C159.546 195.293 158.857 195.481 158.069 195.481ZM158.069 194.276C158.667 194.276 159.16 194.123 159.546 193.816C159.932 193.509 160.218 193.106 160.404 192.606C160.589 192.106 160.682 191.564 160.682 190.981C160.682 190.397 160.589 189.854 160.404 189.35C160.218 188.846 159.932 188.439 159.546 188.128C159.16 187.818 158.667 187.662 158.069 187.662C157.47 187.662 156.978 187.818 156.591 188.128C156.205 188.439 155.919 188.846 155.733 189.35C155.548 189.854 155.455 190.397 155.455 190.981C155.455 191.564 155.548 192.106 155.733 192.606C155.919 193.106 156.205 193.509 156.591 193.816C156.978 194.123 157.47 194.276 158.069 194.276ZM164.07 195.299V186.572H165.366V187.89H165.456C165.616 187.458 165.903 187.108 166.32 186.839C166.737 186.57 167.206 186.435 167.729 186.435C167.828 186.435 167.951 186.437 168.098 186.441C168.246 186.445 168.358 186.45 168.434 186.458V187.822C168.388 187.81 168.284 187.793 168.121 187.77C167.962 187.744 167.794 187.731 167.616 187.731C167.191 187.731 166.812 187.82 166.479 187.998C166.15 188.172 165.888 188.414 165.695 188.725C165.506 189.032 165.411 189.382 165.411 189.776V195.299H164.07ZM170.023 195.299V186.572H171.319V187.935H171.432C171.614 187.469 171.908 187.108 172.313 186.85C172.718 186.589 173.205 186.458 173.773 186.458C174.349 186.458 174.828 186.589 175.211 186.85C175.597 187.108 175.898 187.469 176.114 187.935H176.205C176.428 187.484 176.764 187.126 177.211 186.861C177.658 186.592 178.194 186.458 178.819 186.458C179.599 186.458 180.237 186.702 180.733 187.191C181.23 187.676 181.478 188.431 181.478 189.458V195.299H180.137V189.458C180.137 188.814 179.961 188.354 179.608 188.077C179.256 187.801 178.841 187.662 178.364 187.662C177.75 187.662 177.275 187.848 176.938 188.219C176.601 188.587 176.432 189.053 176.432 189.617V195.299H175.069V189.322C175.069 188.825 174.908 188.426 174.586 188.123C174.264 187.816 173.849 187.662 173.341 187.662C172.993 187.662 172.667 187.755 172.364 187.941C172.065 188.126 171.822 188.384 171.637 188.714C171.455 189.039 171.364 189.416 171.364 189.844V195.299H170.023ZM190.998 195.503C190.445 195.503 189.943 195.399 189.492 195.191C189.041 194.979 188.683 194.674 188.418 194.276C188.153 193.875 188.02 193.39 188.02 192.822C188.02 192.322 188.119 191.916 188.316 191.606C188.513 191.291 188.776 191.045 189.106 190.867C189.435 190.689 189.799 190.556 190.196 190.469C190.598 190.378 191.001 190.306 191.407 190.253C191.937 190.185 192.367 190.134 192.696 190.1C193.03 190.062 193.272 190 193.424 189.912C193.579 189.825 193.657 189.674 193.657 189.458V189.412C193.657 188.852 193.503 188.416 193.196 188.106C192.893 187.795 192.433 187.64 191.816 187.64C191.176 187.64 190.674 187.78 190.31 188.06C189.946 188.34 189.691 188.64 189.543 188.958L188.27 188.503C188.498 187.973 188.801 187.56 189.179 187.265C189.562 186.965 189.979 186.757 190.429 186.64C190.884 186.519 191.331 186.458 191.77 186.458C192.051 186.458 192.373 186.492 192.736 186.56C193.104 186.625 193.458 186.759 193.799 186.964C194.143 187.168 194.429 187.477 194.657 187.89C194.884 188.303 194.998 188.856 194.998 189.549V195.299H193.657V194.117H193.589C193.498 194.306 193.346 194.509 193.134 194.725C192.922 194.941 192.64 195.125 192.287 195.276C191.935 195.428 191.505 195.503 190.998 195.503ZM191.202 194.299C191.732 194.299 192.179 194.195 192.543 193.986C192.91 193.778 193.187 193.509 193.373 193.18C193.562 192.85 193.657 192.503 193.657 192.14V190.912C193.6 190.981 193.475 191.043 193.282 191.1C193.092 191.153 192.873 191.2 192.623 191.242C192.376 191.28 192.136 191.314 191.901 191.344C191.67 191.371 191.482 191.394 191.339 191.412C190.99 191.458 190.664 191.532 190.361 191.634C190.062 191.733 189.82 191.882 189.634 192.083C189.452 192.28 189.361 192.549 189.361 192.89C189.361 193.356 189.534 193.708 189.878 193.947C190.227 194.181 190.668 194.299 191.202 194.299ZM198.786 190.049V195.299H197.445V186.572H198.741V187.935H198.854C199.059 187.492 199.369 187.136 199.786 186.867C200.203 186.594 200.741 186.458 201.4 186.458C201.991 186.458 202.508 186.579 202.951 186.822C203.394 187.06 203.739 187.424 203.985 187.912C204.231 188.397 204.354 189.011 204.354 189.753V195.299H203.013V189.844C203.013 189.159 202.835 188.625 202.479 188.242C202.123 187.856 201.634 187.662 201.013 187.662C200.585 187.662 200.203 187.755 199.866 187.941C199.532 188.126 199.269 188.397 199.076 188.753C198.883 189.109 198.786 189.541 198.786 190.049ZM210.1 195.481C209.373 195.481 208.731 195.297 208.174 194.93C207.617 194.558 207.181 194.036 206.867 193.361C206.553 192.683 206.395 191.882 206.395 190.958C206.395 190.041 206.553 189.246 206.867 188.572C207.181 187.897 207.619 187.376 208.179 187.009C208.74 186.642 209.388 186.458 210.123 186.458C210.691 186.458 211.14 186.553 211.469 186.742C211.803 186.928 212.056 187.14 212.231 187.378C212.409 187.613 212.547 187.806 212.645 187.958H212.759V183.662H214.1V195.299H212.804V193.958H212.645C212.547 194.117 212.407 194.318 212.225 194.56C212.043 194.799 211.784 195.013 211.446 195.202C211.109 195.388 210.66 195.481 210.1 195.481ZM210.282 194.276C210.82 194.276 211.274 194.136 211.645 193.856C212.017 193.572 212.299 193.18 212.492 192.68C212.685 192.176 212.782 191.594 212.782 190.935C212.782 190.284 212.687 189.714 212.498 189.225C212.308 188.733 212.028 188.35 211.657 188.077C211.285 187.801 210.827 187.662 210.282 187.662C209.714 187.662 209.24 187.808 208.861 188.1C208.486 188.388 208.204 188.78 208.015 189.276C207.829 189.769 207.736 190.322 207.736 190.935C207.736 191.556 207.831 192.121 208.02 192.628C208.214 193.132 208.498 193.534 208.873 193.833C209.251 194.128 209.721 194.276 210.282 194.276ZM223.219 195.299L220.56 186.572H221.969L223.856 193.253H223.946L225.81 186.572H227.242L229.083 193.231H229.174L231.06 186.572H232.469L229.81 195.299H228.492L226.583 188.594H226.446L224.537 195.299H223.219ZM237.604 195.481C236.763 195.481 236.038 195.295 235.428 194.924C234.822 194.549 234.354 194.026 234.025 193.356C233.699 192.681 233.536 191.897 233.536 191.003C233.536 190.109 233.699 189.322 234.025 188.64C234.354 187.954 234.812 187.42 235.4 187.037C235.991 186.651 236.68 186.458 237.468 186.458C237.922 186.458 238.371 186.534 238.814 186.685C239.258 186.837 239.661 187.083 240.025 187.424C240.388 187.761 240.678 188.208 240.894 188.765C241.11 189.322 241.218 190.007 241.218 190.822V191.39H234.491V190.231H239.854C239.854 189.738 239.756 189.299 239.559 188.912C239.366 188.526 239.089 188.221 238.729 187.998C238.373 187.774 237.953 187.662 237.468 187.662C236.934 187.662 236.472 187.795 236.081 188.06C235.695 188.322 235.398 188.662 235.189 189.083C234.981 189.503 234.877 189.954 234.877 190.435V191.208C234.877 191.867 234.991 192.426 235.218 192.884C235.449 193.339 235.769 193.685 236.178 193.924C236.587 194.159 237.062 194.276 237.604 194.276C237.956 194.276 238.275 194.227 238.559 194.128C238.847 194.026 239.095 193.875 239.303 193.674C239.511 193.469 239.672 193.215 239.786 192.912L241.081 193.276C240.945 193.715 240.716 194.102 240.394 194.435C240.072 194.765 239.674 195.022 239.201 195.208C238.727 195.39 238.195 195.481 237.604 195.481ZM244.417 183.662V187.662H243.167V183.662H244.417ZM248.145 183.662V195.299H246.804V183.662H248.145ZM251.942 183.662V195.299H250.601V183.662H251.942ZM259.08 195.299V183.662H260.421V187.958H260.535C260.633 187.806 260.769 187.613 260.944 187.378C261.122 187.14 261.375 186.928 261.705 186.742C262.038 186.553 262.489 186.458 263.057 186.458C263.792 186.458 264.44 186.642 265 187.009C265.561 187.376 265.999 187.897 266.313 188.572C266.627 189.246 266.785 190.041 266.785 190.958C266.785 191.882 266.627 192.683 266.313 193.361C265.999 194.036 265.563 194.558 265.006 194.93C264.449 195.297 263.807 195.481 263.08 195.481C262.519 195.481 262.071 195.388 261.733 195.202C261.396 195.013 261.137 194.799 260.955 194.56C260.773 194.318 260.633 194.117 260.535 193.958H260.375V195.299H259.08ZM260.398 190.935C260.398 191.594 260.495 192.176 260.688 192.68C260.881 193.18 261.163 193.572 261.535 193.856C261.906 194.136 262.36 194.276 262.898 194.276C263.459 194.276 263.927 194.128 264.302 193.833C264.68 193.534 264.964 193.132 265.154 192.628C265.347 192.121 265.444 191.556 265.444 190.935C265.444 190.322 265.349 189.769 265.16 189.276C264.974 188.78 264.692 188.388 264.313 188.1C263.938 187.808 263.466 187.662 262.898 187.662C262.353 187.662 261.894 187.801 261.523 188.077C261.152 188.35 260.872 188.733 260.682 189.225C260.493 189.714 260.398 190.284 260.398 190.935ZM272.495 195.481C271.654 195.481 270.928 195.295 270.319 194.924C269.713 194.549 269.245 194.026 268.915 193.356C268.589 192.681 268.427 191.897 268.427 191.003C268.427 190.109 268.589 189.322 268.915 188.64C269.245 187.954 269.703 187.42 270.29 187.037C270.881 186.651 271.571 186.458 272.358 186.458C272.813 186.458 273.262 186.534 273.705 186.685C274.148 186.837 274.552 187.083 274.915 187.424C275.279 187.761 275.569 188.208 275.785 188.765C276 189.322 276.108 190.007 276.108 190.822V191.39H269.381V190.231H274.745C274.745 189.738 274.646 189.299 274.449 188.912C274.256 188.526 273.98 188.221 273.62 187.998C273.264 187.774 272.843 187.662 272.358 187.662C271.824 187.662 271.362 187.795 270.972 188.06C270.586 188.322 270.288 188.662 270.08 189.083C269.872 189.503 269.767 189.954 269.767 190.435V191.208C269.767 191.867 269.881 192.426 270.108 192.884C270.339 193.339 270.66 193.685 271.069 193.924C271.478 194.159 271.953 194.276 272.495 194.276C272.847 194.276 273.165 194.227 273.449 194.128C273.737 194.026 273.985 193.875 274.194 193.674C274.402 193.469 274.563 193.215 274.677 192.912L275.972 193.276C275.836 193.715 275.607 194.102 275.285 194.435C274.963 194.765 274.565 195.022 274.091 195.208C273.618 195.39 273.086 195.481 272.495 195.481ZM65.4138 219.299V210.572H66.7547V219.299H65.4138ZM66.0956 209.117C65.8343 209.117 65.6089 209.028 65.4195 208.85C65.2339 208.672 65.1411 208.458 65.1411 208.208C65.1411 207.958 65.2339 207.744 65.4195 207.566C65.6089 207.388 65.8343 207.299 66.0956 207.299C66.357 207.299 66.5805 207.388 66.7661 207.566C66.9555 207.744 67.0502 207.958 67.0502 208.208C67.0502 208.458 66.9555 208.672 66.7661 208.85C66.5805 209.028 66.357 209.117 66.0956 209.117ZM70.5516 214.049V219.299H69.2107V210.572H70.5061V211.935H70.6198C70.8243 211.492 71.1349 211.136 71.5516 210.867C71.9682 210.594 72.5061 210.458 73.1652 210.458C73.7561 210.458 74.2732 210.579 74.7164 210.822C75.1595 211.06 75.5042 211.424 75.7504 211.912C75.9967 212.397 76.1198 213.011 76.1198 213.753V219.299H74.7789V213.844C74.7789 213.159 74.6008 212.625 74.2448 212.242C73.8887 211.856 73.4001 211.662 72.7789 211.662C72.3508 211.662 71.9682 211.755 71.6311 211.941C71.2978 212.126 71.0345 212.397 70.8414 212.753C70.6482 213.109 70.5516 213.541 70.5516 214.049ZM86.8655 210.572V211.708H82.3428V210.572H86.8655ZM83.661 208.481H85.0019V216.799C85.0019 217.178 85.0568 217.462 85.1666 217.651C85.2803 217.837 85.4242 217.962 85.5985 218.026C85.7765 218.087 85.964 218.117 86.161 218.117C86.3087 218.117 86.4299 218.109 86.5246 218.094C86.6193 218.075 86.695 218.06 86.7519 218.049L87.0246 219.253C86.9337 219.287 86.8068 219.322 86.6439 219.356C86.481 219.394 86.2746 219.412 86.0246 219.412C85.6458 219.412 85.2746 219.331 84.911 219.168C84.5511 219.005 84.2519 218.757 84.0132 218.424C83.7784 218.09 83.661 217.67 83.661 217.162V208.481ZM92.3343 219.481C91.5464 219.481 90.8551 219.293 90.2604 218.918C89.6695 218.543 89.2074 218.019 88.874 217.344C88.5445 216.67 88.3797 215.882 88.3797 214.981C88.3797 214.072 88.5445 213.278 88.874 212.6C89.2074 211.922 89.6695 211.395 90.2604 211.02C90.8551 210.645 91.5464 210.458 92.3343 210.458C93.1221 210.458 93.8115 210.645 94.4024 211.02C94.9971 211.395 95.4593 211.922 95.7888 212.6C96.1221 213.278 96.2888 214.072 96.2888 214.981C96.2888 215.882 96.1221 216.67 95.7888 217.344C95.4593 218.019 94.9971 218.543 94.4024 218.918C93.8115 219.293 93.1221 219.481 92.3343 219.481ZM92.3343 218.276C92.9327 218.276 93.4252 218.123 93.8115 217.816C94.1979 217.509 94.4839 217.106 94.6695 216.606C94.8551 216.106 94.9479 215.564 94.9479 214.981C94.9479 214.397 94.8551 213.854 94.6695 213.35C94.4839 212.846 94.1979 212.439 93.8115 212.128C93.4252 211.818 92.9327 211.662 92.3343 211.662C91.7358 211.662 91.2433 211.818 90.857 212.128C90.4706 212.439 90.1846 212.846 89.999 213.35C89.8134 213.854 89.7206 214.397 89.7206 214.981C89.7206 215.564 89.8134 216.106 89.999 216.606C90.1846 217.106 90.4706 217.509 90.857 217.816C91.2433 218.123 91.7358 218.276 92.3343 218.276ZM103.836 215.731V210.572H105.177V219.299H103.836V217.822H103.745C103.54 218.265 103.222 218.642 102.79 218.952C102.358 219.259 101.813 219.412 101.154 219.412C100.608 219.412 100.124 219.293 99.6993 219.055C99.2751 218.812 98.9417 218.448 98.6993 217.964C98.4569 217.475 98.3357 216.859 98.3357 216.117V210.572H99.6766V216.026C99.6766 216.662 99.8546 217.17 100.211 217.549C100.571 217.928 101.029 218.117 101.586 218.117C101.919 218.117 102.258 218.032 102.603 217.861C102.951 217.691 103.243 217.43 103.478 217.077C103.716 216.725 103.836 216.276 103.836 215.731ZM111.178 219.481C110.36 219.481 109.655 219.287 109.064 218.901C108.473 218.515 108.019 217.983 107.701 217.305C107.383 216.626 107.223 215.852 107.223 214.981C107.223 214.094 107.386 213.312 107.712 212.634C108.042 211.952 108.5 211.42 109.087 211.037C109.678 210.651 110.367 210.458 111.155 210.458C111.769 210.458 112.322 210.572 112.814 210.799C113.307 211.026 113.71 211.344 114.025 211.753C114.339 212.162 114.534 212.64 114.61 213.185H113.269C113.167 212.787 112.939 212.435 112.587 212.128C112.239 211.818 111.769 211.662 111.178 211.662C110.655 211.662 110.197 211.799 109.803 212.072C109.413 212.34 109.108 212.721 108.888 213.214C108.672 213.702 108.564 214.276 108.564 214.935C108.564 215.609 108.67 216.197 108.883 216.697C109.098 217.197 109.401 217.585 109.792 217.861C110.186 218.138 110.648 218.276 111.178 218.276C111.526 218.276 111.843 218.215 112.127 218.094C112.411 217.973 112.651 217.799 112.848 217.572C113.045 217.344 113.186 217.072 113.269 216.753H114.61C114.534 217.269 114.347 217.733 114.047 218.145C113.752 218.555 113.36 218.88 112.871 219.123C112.386 219.361 111.822 219.481 111.178 219.481ZM117.911 214.049V219.299H116.57V207.662H117.911V211.935H118.025C118.229 211.484 118.536 211.126 118.945 210.861C119.358 210.592 119.907 210.458 120.593 210.458C121.187 210.458 121.708 210.577 122.155 210.816C122.602 211.051 122.949 211.412 123.195 211.901C123.445 212.386 123.57 213.003 123.57 213.753V219.299H122.229V213.844C122.229 213.151 122.049 212.615 121.689 212.236C121.333 211.854 120.839 211.662 120.206 211.662C119.767 211.662 119.373 211.755 119.025 211.941C118.68 212.126 118.407 212.397 118.206 212.753C118.009 213.109 117.911 213.541 117.911 214.049ZM136.705 212.526L135.5 212.867C135.425 212.666 135.313 212.471 135.165 212.282C135.021 212.089 134.824 211.93 134.574 211.805C134.324 211.68 134.004 211.617 133.614 211.617C133.08 211.617 132.635 211.74 132.279 211.986C131.927 212.229 131.75 212.537 131.75 212.912C131.75 213.246 131.872 213.509 132.114 213.702C132.357 213.895 132.735 214.056 133.25 214.185L134.546 214.503C135.326 214.693 135.908 214.983 136.29 215.373C136.673 215.759 136.864 216.257 136.864 216.867C136.864 217.367 136.72 217.814 136.432 218.208C136.148 218.602 135.75 218.912 135.239 219.14C134.728 219.367 134.133 219.481 133.455 219.481C132.565 219.481 131.828 219.287 131.245 218.901C130.661 218.515 130.292 217.95 130.137 217.208L131.41 216.89C131.531 217.359 131.76 217.712 132.097 217.947C132.438 218.181 132.883 218.299 133.432 218.299C134.057 218.299 134.553 218.166 134.921 217.901C135.292 217.632 135.478 217.31 135.478 216.935C135.478 216.632 135.372 216.378 135.16 216.174C134.947 215.965 134.622 215.81 134.182 215.708L132.728 215.367C131.928 215.178 131.341 214.884 130.966 214.486C130.595 214.085 130.41 213.583 130.41 212.981C130.41 212.488 130.548 212.053 130.824 211.674C131.105 211.295 131.485 210.998 131.966 210.782C132.451 210.566 133 210.458 133.614 210.458C134.478 210.458 135.156 210.647 135.648 211.026C136.144 211.405 136.497 211.905 136.705 212.526ZM142.428 219.481C141.64 219.481 140.949 219.293 140.354 218.918C139.763 218.543 139.301 218.019 138.968 217.344C138.638 216.67 138.473 215.882 138.473 214.981C138.473 214.072 138.638 213.278 138.968 212.6C139.301 211.922 139.763 211.395 140.354 211.02C140.949 210.645 141.64 210.458 142.428 210.458C143.216 210.458 143.905 210.645 144.496 211.02C145.091 211.395 145.553 211.922 145.883 212.6C146.216 213.278 146.383 214.072 146.383 214.981C146.383 215.882 146.216 216.67 145.883 217.344C145.553 218.019 145.091 218.543 144.496 218.918C143.905 219.293 143.216 219.481 142.428 219.481ZM142.428 218.276C143.026 218.276 143.519 218.123 143.905 217.816C144.292 217.509 144.578 217.106 144.763 216.606C144.949 216.106 145.042 215.564 145.042 214.981C145.042 214.397 144.949 213.854 144.763 213.35C144.578 212.846 144.292 212.439 143.905 212.128C143.519 211.818 143.026 211.662 142.428 211.662C141.83 211.662 141.337 211.818 140.951 212.128C140.564 212.439 140.278 212.846 140.093 213.35C139.907 213.854 139.814 214.397 139.814 214.981C139.814 215.564 139.907 216.106 140.093 216.606C140.278 217.106 140.564 217.509 140.951 217.816C141.337 218.123 141.83 218.276 142.428 218.276ZM151.975 219.481C151.187 219.481 150.496 219.293 149.901 218.918C149.31 218.543 148.848 218.019 148.515 217.344C148.185 216.67 148.02 215.882 148.02 214.981C148.02 214.072 148.185 213.278 148.515 212.6C148.848 211.922 149.31 211.395 149.901 211.02C150.496 210.645 151.187 210.458 151.975 210.458C152.763 210.458 153.452 210.645 154.043 211.02C154.638 211.395 155.1 211.922 155.429 212.6C155.763 213.278 155.929 214.072 155.929 214.981C155.929 215.882 155.763 216.67 155.429 217.344C155.1 218.019 154.638 218.543 154.043 218.918C153.452 219.293 152.763 219.481 151.975 219.481ZM151.975 218.276C152.573 218.276 153.066 218.123 153.452 217.816C153.839 217.509 154.124 217.106 154.31 216.606C154.496 216.106 154.589 215.564 154.589 214.981C154.589 214.397 154.496 213.854 154.31 213.35C154.124 212.846 153.839 212.439 153.452 212.128C153.066 211.818 152.573 211.662 151.975 211.662C151.376 211.662 150.884 211.818 150.498 212.128C150.111 212.439 149.825 212.846 149.64 213.35C149.454 213.854 149.361 214.397 149.361 214.981C149.361 215.564 149.454 216.106 149.64 216.606C149.825 217.106 150.111 217.509 150.498 217.816C150.884 218.123 151.376 218.276 151.975 218.276ZM159.317 214.049V219.299H157.976V210.572H159.272V211.935H159.385C159.59 211.492 159.901 211.136 160.317 210.867C160.734 210.594 161.272 210.458 161.931 210.458C162.522 210.458 163.039 210.579 163.482 210.822C163.925 211.06 164.27 211.424 164.516 211.912C164.762 212.397 164.885 213.011 164.885 213.753V219.299H163.544V213.844C163.544 213.159 163.366 212.625 163.01 212.242C162.654 211.856 162.166 211.662 161.544 211.662C161.116 211.662 160.734 211.755 160.397 211.941C160.063 212.126 159.8 212.397 159.607 212.753C159.414 213.109 159.317 213.541 159.317 214.049ZM168.313 219.39C168.033 219.39 167.792 219.289 167.591 219.089C167.391 218.888 167.29 218.647 167.29 218.367C167.29 218.087 167.391 217.846 167.591 217.645C167.792 217.445 168.033 217.344 168.313 217.344C168.593 217.344 168.834 217.445 169.035 217.645C169.235 217.846 169.336 218.087 169.336 218.367C169.336 218.553 169.288 218.723 169.194 218.878C169.103 219.034 168.98 219.159 168.824 219.253C168.673 219.344 168.502 219.39 168.313 219.39Z" fill="white"/>
<rect width="222" height="52.3906" transform="translate(64.1865 358.299)" fill="#055B89"/>
<path d="M148.954 379.28V390.189H146.961L142.215 383.323H142.135V390.189H139.829V379.28H141.853L146.562 386.141H146.658V379.28H148.954ZM152.779 390.189V379.28H160.13V381.182H155.086V383.781H159.752V385.683H155.086V388.288H160.151V390.189H152.779ZM166.046 379.28L168.246 382.998H168.332L170.542 379.28H173.147L169.818 384.735L173.221 390.189H170.569L168.332 386.466H168.246L166.009 390.189H163.367L166.781 384.735L163.431 379.28H166.046ZM176.111 381.182V379.28H185.07V381.182H181.731V390.189H179.451V381.182H176.111Z" fill="white"/>
<g clip-path="url(#clip0_501_1806)">
<path d="M228.087 379.695C227.653 379.434 227.131 379.521 226.871 379.868C226.61 380.303 226.697 380.824 227.044 381.085L231.216 383.953H220.352C219.831 383.953 219.483 384.301 219.483 384.822C219.483 385.344 219.831 385.691 220.352 385.691H231.216L227.044 388.559C226.61 388.82 226.523 389.341 226.784 389.776C226.958 390.037 227.218 390.124 227.479 390.124C227.653 390.124 227.827 390.037 228 389.95L235.475 384.822L228.087 379.695Z" fill="white"/>
</g>
<rect x="64.1865" y="242.299" width="222" height="42" rx="21" fill="white"/>
<path d="M85.4195 267.299V257.117H91.5644V258.211H86.6524V261.651H91.2462V262.745H86.6524V266.205H91.6439V267.299H85.4195ZM93.7867 257.117H95.2583L98.7185 265.569H98.8378L102.298 257.117H103.77V267.299H102.616V259.563H102.517L99.335 267.299H98.2213L95.0395 259.563H94.9401V267.299H93.7867V257.117ZM106.659 267.299H105.367L109.105 257.117H110.378L114.117 267.299H112.824L109.782 258.728H109.702L106.659 267.299ZM107.137 263.322H112.347V264.415H107.137V263.322ZM116.936 257.117V267.299H115.703V257.117H116.936ZM119.408 267.299V257.117H120.641V266.205H125.374V267.299H119.408Z" fill="#5E6468"/>
<rect x="64.1865" y="300.299" width="222" height="42" rx="21" fill="white"/>
<path d="M94.286 317.799H92.9649C92.8868 317.419 92.7501 317.085 92.5548 316.797C92.363 316.51 92.1286 316.268 91.8517 316.073C91.5782 315.874 91.2746 315.725 90.9408 315.626C90.607 315.526 90.259 315.476 89.8968 315.476C89.2362 315.476 88.6379 315.643 88.1017 315.977C87.569 316.311 87.1446 316.803 86.8286 317.453C86.5161 318.102 86.3598 318.9 86.3598 319.844C86.3598 320.789 86.5161 321.586 86.8286 322.236C87.1446 322.886 87.569 323.378 88.1017 323.711C88.6379 324.045 89.2362 324.212 89.8968 324.212C90.259 324.212 90.607 324.162 90.9408 324.063C91.2746 323.964 91.5782 323.816 91.8517 323.621C92.1286 323.422 92.363 323.179 92.5548 322.891C92.7501 322.6 92.8868 322.266 92.9649 321.89H94.286C94.1865 322.447 94.0054 322.946 93.7426 323.387C93.4798 323.827 93.1531 324.202 92.7625 324.51C92.3719 324.816 91.9333 325.048 91.4468 325.208C90.9639 325.368 90.4472 325.448 89.8968 325.448C88.9664 325.448 88.1389 325.221 87.4145 324.766C86.6901 324.312 86.1201 323.665 85.7046 322.827C85.2892 321.989 85.0814 320.995 85.0814 319.844C85.0814 318.694 85.2892 317.699 85.7046 316.861C86.1201 316.023 86.6901 315.377 87.4145 314.922C88.1389 314.468 88.9664 314.241 89.8968 314.241C90.4472 314.241 90.9639 314.32 91.4468 314.48C91.9333 314.64 92.3719 314.874 92.7625 315.183C93.1531 315.489 93.4798 315.862 93.7426 316.302C94.0054 316.739 94.1865 317.238 94.286 317.799ZM105.625 319.844C105.625 320.995 105.417 321.989 105.002 322.827C104.586 323.665 104.017 324.312 103.292 324.766C102.568 325.221 101.74 325.448 100.81 325.448C99.8794 325.448 99.052 325.221 98.3276 324.766C97.6032 324.312 97.0332 323.665 96.6177 322.827C96.2022 321.989 95.9945 320.995 95.9945 319.844C95.9945 318.694 96.2022 317.699 96.6177 316.861C97.0332 316.023 97.6032 315.377 98.3276 314.922C99.052 314.468 99.8794 314.241 100.81 314.241C101.74 314.241 102.568 314.468 103.292 314.922C104.017 315.377 104.586 316.023 105.002 316.861C105.417 317.699 105.625 318.694 105.625 319.844ZM104.347 319.844C104.347 318.9 104.189 318.102 103.873 317.453C103.56 316.803 103.136 316.311 102.6 315.977C102.067 315.643 101.47 315.476 100.81 315.476C100.149 315.476 99.551 315.643 99.0147 315.977C98.4821 316.311 98.0577 316.803 97.7417 317.453C97.4292 318.102 97.2729 318.9 97.2729 319.844C97.2729 320.789 97.4292 321.586 97.7417 322.236C98.0577 322.886 98.4821 323.378 99.0147 323.711C99.551 324.045 100.149 324.212 100.81 324.212C101.47 324.212 102.067 324.045 102.6 323.711C103.136 323.378 103.56 322.886 103.873 322.236C104.189 321.586 104.347 320.789 104.347 319.844ZM107.846 314.39H109.423L113.131 323.445H113.258L116.966 314.39H118.542V325.299H117.307V317.01H117.2L113.791 325.299H112.598L109.189 317.01H109.082V325.299H107.846V314.39ZM121.191 325.299V314.39H124.877C125.733 314.39 126.433 314.544 126.976 314.853C127.523 315.159 127.928 315.572 128.19 316.094C128.453 316.616 128.585 317.199 128.585 317.841C128.585 318.484 128.453 319.068 128.19 319.594C127.931 320.119 127.53 320.539 126.987 320.851C126.443 321.16 125.747 321.314 124.899 321.314H122.256V320.143H124.856C125.442 320.143 125.912 320.041 126.267 319.839C126.623 319.637 126.88 319.363 127.04 319.019C127.203 318.671 127.285 318.278 127.285 317.841C127.285 317.405 127.203 317.014 127.04 316.67C126.88 316.325 126.621 316.055 126.262 315.86C125.903 315.661 125.428 315.562 124.835 315.562H122.512V325.299H121.191ZM130.047 325.299H128.662L132.668 314.39H134.031L138.037 325.299H136.652L133.392 316.116H133.307L130.047 325.299ZM130.558 321.037H136.141V322.209H130.558V321.037ZM148.387 314.39V325.299H147.108L141.164 316.733H141.057V325.299H139.736V314.39H141.014L146.98 322.976H147.087V314.39H148.387ZM150.093 314.39H151.605L154.631 319.482H154.759L157.784 314.39H159.297L155.355 320.803V325.299H154.034V320.803L150.093 314.39Z" fill="#5E6468"/>
<path d="M49.8369 38.2561V44.0801H49.1316V38.9955H49.0975L47.6756 39.9396V39.223L49.1316 38.2561H49.8369ZM51.5119 44.0801V43.5682L53.4342 41.4638C53.6598 41.2174 53.8456 41.0031 53.9916 40.8211C54.1376 40.6372 54.2457 40.4647 54.3158 40.3036C54.3878 40.1405 54.4239 39.9699 54.4239 39.7917C54.4239 39.587 54.3746 39.4097 54.276 39.2599C54.1793 39.1102 54.0466 38.9945 53.8779 38.913C53.7091 38.8315 53.5196 38.7907 53.3091 38.7907C53.0854 38.7907 52.8901 38.8372 52.7233 38.93C52.5584 39.021 52.4304 39.149 52.3394 39.314C52.2503 39.4789 52.2057 39.6723 52.2057 39.8941H51.5346C51.5346 39.5528 51.6133 39.2533 51.7706 38.9955C51.928 38.7376 52.1422 38.5367 52.4133 38.3926C52.6863 38.2485 52.9925 38.1765 53.3319 38.1765C53.6731 38.1765 53.9755 38.2485 54.239 38.3926C54.5025 38.5367 54.7092 38.731 54.859 38.9755C55.0087 39.2201 55.0836 39.4922 55.0836 39.7917C55.0836 40.0059 55.0448 40.2154 54.967 40.4202C54.8912 40.623 54.7585 40.8496 54.5689 41.0998C54.3812 41.3482 54.1205 41.6515 53.7869 42.0098L52.4787 43.409V43.4545H55.186V44.0801H51.5119ZM56.861 43.335C56.7207 43.335 56.6003 43.2848 56.4998 43.1843C56.3993 43.0838 56.3491 42.9634 56.3491 42.8231C56.3491 42.6828 56.3993 42.5625 56.4998 42.462C56.6003 42.3615 56.7207 42.3113 56.861 42.3113C57.0013 42.3113 57.1216 42.3615 57.2221 42.462C57.3226 42.5625 57.3728 42.6828 57.3728 42.8231C57.3728 42.916 57.3491 43.0013 57.3017 43.0791C57.2562 43.1568 57.1946 43.2194 57.1169 43.2668C57.0411 43.3123 56.9558 43.335 56.861 43.335ZM56.861 40.3889C56.7207 40.3889 56.6003 40.3387 56.4998 40.2382C56.3993 40.1377 56.3491 40.0173 56.3491 39.877C56.3491 39.7367 56.3993 39.6163 56.4998 39.5159C56.6003 39.4154 56.7207 39.3651 56.861 39.3651C57.0013 39.3651 57.1216 39.4154 57.2221 39.5159C57.3226 39.6163 57.3728 39.7367 57.3728 39.877C57.3728 39.9699 57.3491 40.0552 57.3017 40.133C57.2562 40.2107 57.1946 40.2732 57.1169 40.3206C57.0411 40.3661 56.9558 40.3889 56.861 40.3889ZM58.4293 42.8857V42.3056L60.9887 38.2561H61.4095V39.1547H61.1252L59.1914 42.2146V42.2601H62.638V42.8857H58.4293ZM61.1707 44.0801V42.7094V42.4392V38.2561H61.8418V44.0801H61.1707ZM65.5692 44.1597C65.1787 44.1597 64.8337 44.0905 64.5341 43.9521C64.2365 43.8118 64.0042 43.6194 63.8374 43.3748C63.6706 43.1284 63.5881 42.8478 63.59 42.5331C63.5881 42.2866 63.6364 42.0591 63.735 41.8506C63.8336 41.6401 63.9682 41.4648 64.1388 41.3245C64.3114 41.1823 64.5038 41.0922 64.7161 41.0543V41.0202C64.4374 40.9482 64.2156 40.7918 64.0507 40.551C63.8857 40.3083 63.8042 40.0325 63.8061 39.7235C63.8042 39.4277 63.8791 39.1632 64.0308 38.93C64.1824 38.6969 64.391 38.513 64.6564 38.3784C64.9237 38.2438 65.228 38.1765 65.5692 38.1765C65.9067 38.1765 66.2081 38.2438 66.4735 38.3784C66.739 38.513 66.9475 38.6969 67.0992 38.93C67.2527 39.1632 67.3305 39.4277 67.3324 39.7235C67.3305 40.0325 67.2461 40.3083 67.0793 40.551C66.9143 40.7918 66.6954 40.9482 66.4224 41.0202V41.0543C66.6328 41.0922 66.8224 41.1823 66.9911 41.3245C67.1598 41.4648 67.2944 41.6401 67.3949 41.8506C67.4954 42.0591 67.5466 42.2866 67.5485 42.5331C67.5466 42.8478 67.4613 43.1284 67.2925 43.3748C67.1257 43.6194 66.8935 43.8118 66.5958 43.9521C66.3001 44.0905 65.9579 44.1597 65.5692 44.1597ZM65.5692 43.5341C65.8328 43.5341 66.0603 43.4914 66.2517 43.4061C66.4432 43.3208 66.5911 43.2004 66.6954 43.045C66.7996 42.8895 66.8527 42.7075 66.8546 42.499C66.8527 42.279 66.7958 42.0847 66.684 41.916C66.5721 41.7473 66.4195 41.6145 66.2261 41.5179C66.0347 41.4212 65.8157 41.3728 65.5692 41.3728C65.3209 41.3728 65.0991 41.4212 64.9038 41.5179C64.7104 41.6145 64.5578 41.7473 64.446 41.916C64.336 42.0847 64.282 42.279 64.2839 42.499C64.282 42.7075 64.3322 42.8895 64.4346 43.045C64.5389 43.2004 64.6877 43.3208 64.881 43.4061C65.0744 43.4914 65.3038 43.5341 65.5692 43.5341ZM65.5692 40.77C65.7778 40.77 65.9626 40.7282 66.1238 40.6448C66.2868 40.5614 66.4148 40.4448 66.5077 40.295C66.6006 40.1453 66.648 39.9699 66.6499 39.769C66.648 39.5718 66.6015 39.4002 66.5105 39.2542C66.4195 39.1064 66.2934 38.9926 66.1323 38.913C65.9712 38.8315 65.7835 38.7907 65.5692 38.7907C65.3512 38.7907 65.1607 38.8315 64.9976 38.913C64.8346 38.9926 64.7085 39.1064 64.6194 39.2542C64.5303 39.4002 64.4867 39.5718 64.4886 39.769C64.4867 39.9699 64.5313 40.1453 64.6223 40.295C64.7152 40.4448 64.8431 40.5614 65.0062 40.6448C65.1692 40.7282 65.3569 40.77 65.5692 40.77ZM70.993 44.0801V38.2561H72.9609C73.4177 38.2561 73.7912 38.3385 74.0813 38.5035C74.3732 38.6665 74.5894 38.8874 74.7297 39.1661C74.87 39.4448 74.9401 39.7557 74.9401 40.0988C74.9401 40.442 74.87 40.7538 74.7297 41.0344C74.5913 41.315 74.377 41.5387 74.087 41.7055C73.7969 41.8705 73.4253 41.953 72.9722 41.953H71.5617V41.3273H72.9495C73.2623 41.3273 73.5135 41.2733 73.7031 41.1652C73.8927 41.0572 74.0301 40.9112 74.1154 40.7273C74.2026 40.5415 74.2462 40.332 74.2462 40.0988C74.2462 39.8656 74.2026 39.6571 74.1154 39.4732C74.0301 39.2893 73.8917 39.1452 73.7002 39.041C73.5087 38.9348 73.2547 38.8817 72.9381 38.8817H71.6982V44.0801H70.993ZM76.0762 38.2561H76.9179L78.8972 43.0905H78.9654L80.9447 38.2561H81.7864V44.0801H81.1267V39.6552H81.0698L79.2498 44.0801H78.6128L76.7928 39.6552H76.7359V44.0801H76.0762V38.2561Z" fill="#E0E2FF"/>
<defs>
<linearGradient id="paint0_linear_501_1806" x1="347.718" y1="163.994" x2="347.718" y2="241.314" gradientUnits="userSpaceOnUse">
<stop stop-color="#CBCBCB" stop-opacity="0.275"/>
<stop offset="0.04" stop-color="#CBCBCB"/>
<stop offset="0.96" stop-color="#CBCBCB"/>
<stop offset="1" stop-color="#CBCBCB" stop-opacity="0.276"/>
</linearGradient>
<linearGradient id="paint1_linear_501_1806" x1="2.65524" y1="96.5703" x2="2.65524" y2="120.866" gradientUnits="userSpaceOnUse">
<stop stop-color="#CBCBCB" stop-opacity="0.275"/>
<stop offset="0.05" stop-color="#CBCBCB"/>
<stop offset="0.95" stop-color="#CBCBCB"/>
<stop offset="1" stop-color="#CBCBCB" stop-opacity="0.276"/>
</linearGradient>
<linearGradient id="paint2_linear_501_1806" x1="2.65621" y1="211.23" x2="2.65621" y2="259.036" gradientUnits="userSpaceOnUse">
<stop stop-color="#CBCBCB" stop-opacity="0.275"/>
<stop offset="0.05" stop-color="#CBCBCB"/>
<stop offset="0.95" stop-color="#CBCBCB"/>
<stop offset="1" stop-color="#CBCBCB" stop-opacity="0.276"/>
</linearGradient>
<linearGradient id="paint3_linear_501_1806" x1="330.956" y1="351.169" x2="339.63" y2="351.169" gradientUnits="userSpaceOnUse">
<stop stop-color="#404040"/>
<stop offset="0.6" stop-color="#838383"/>
<stop offset="1" stop-color="#A7A7A7"/>
</linearGradient>
<linearGradient id="paint4_linear_501_1806" x1="19.4159" y1="351.167" x2="10.7419" y2="351.167" gradientUnits="userSpaceOnUse">
<stop stop-color="#404040"/>
<stop offset="0.6" stop-color="#838383"/>
<stop offset="1" stop-color="#A7A7A7"/>
</linearGradient>
<linearGradient id="paint5_linear_501_1806" x1="30.9863" y1="21.6639" x2="319.879" y2="21.6639" gradientUnits="userSpaceOnUse">
<stop stop-color="#4F4F4F" stop-opacity="0.131"/>
<stop offset="0.07" stop-color="#4F4F4F"/>
<stop offset="0.937" stop-color="#4F4F4F" stop-opacity="0.953"/>
<stop offset="1" stop-color="#4F4F4F" stop-opacity="0"/>
</linearGradient>
<linearGradient id="paint6_linear_501_1806" x1="30.9863" y1="680.189" x2="319.879" y2="680.189" gradientUnits="userSpaceOnUse">
<stop stop-color="#4F4F4F" stop-opacity="0.131"/>
<stop offset="0.07" stop-color="#4F4F4F"/>
<stop offset="0.937" stop-color="#4F4F4F" stop-opacity="0.953"/>
<stop offset="1" stop-color="#4F4F4F" stop-opacity="0"/>
</linearGradient>
<linearGradient id="paint7_linear_501_1806" x1="295.953" y1="21.6641" x2="294.97" y2="894.606" gradientUnits="userSpaceOnUse">
<stop stop-color="#404040"/>
<stop offset="0.022" stop-color="#464646"/>
<stop offset="0.999" stop-color="#525252" stop-opacity="0.016"/>
<stop offset="1" stop-color="#444444" stop-opacity="0"/>
</linearGradient>
<clipPath id="clip0_501_1806">
<rect width="16.0781" height="10.6029" fill="white" transform="translate(219.483 379.521)"/>
</clipPath>
</defs>
</svg>
